<svg width="32" height="32" viewBox="0 0 32 32" fill="none" xmlns="http://www.w3.org/2000/svg">
<path d="M0 6C0 2.68629 2.68629 0 6 0H26C29.3137 0 32 2.68629 32 6V26C32 29.3137 29.3137 32 26 32H6C2.68629 32 0 29.3137 0 26V6Z" fill="#21D99A"/>
<path d="M10.0846 10.0831L21.9179 21.9164M24.3346 15.9998C24.3346 20.6022 20.6037 24.3332 16.0013 24.3332C11.3989 24.3332 7.66797 20.6022 7.66797 15.9998C7.66797 11.3975 11.3989 7.6665 16.0013 7.6665C20.6037 7.6665 24.3346 11.3975 24.3346 15.9998Z" stroke="white" stroke-linecap="round" stroke-linejoin="round"/>
</svg>
