<svg width="32" height="32" viewBox="0 0 32 32" fill="none" xmlns="http://www.w3.org/2000/svg">
<path d="M0 6C0 2.68629 2.68629 0 6 0H26C29.3137 0 32 2.68629 32 6V26C32 29.3137 29.3137 32 26 32H6C2.68629 32 0 29.3137 0 26V6Z" fill="#4C5CE5"/>
<path d="M14.3333 23.5V12.6667C14.3333 12.4457 14.2455 12.2337 14.0893 12.0774C13.933 11.9211 13.721 11.8333 13.5 11.8333H9.33333C9.11232 11.8333 8.90036 11.9211 8.74408 12.0774C8.5878 12.2337 8.5 12.4457 8.5 12.6667V22.6667C8.5 22.8877 8.5878 23.0996 8.74408 23.2559C8.90036 23.4122 9.11232 23.5 9.33333 23.5H19.3333C19.5543 23.5 19.7663 23.4122 19.9226 23.2559C20.0789 23.0996 20.1667 22.8877 20.1667 22.6667V18.5C20.1667 18.279 20.0789 18.067 19.9226 17.9107C19.7663 17.7545 19.5543 17.6667 19.3333 17.6667H8.5M18.5 8.5H22.6667C23.1269 8.5 23.5 8.8731 23.5 9.33333V13.5C23.5 13.9602 23.1269 14.3333 22.6667 14.3333H18.5C18.0398 14.3333 17.6667 13.9602 17.6667 13.5V9.33333C17.6667 8.8731 18.0398 8.5 18.5 8.5Z" stroke="white" stroke-linecap="round" stroke-linejoin="round"/>
</svg>
