<svg width="32" height="32" viewBox="0 0 32 32" fill="none" xmlns="http://www.w3.org/2000/svg">
<path d="M0 6C0 2.68629 2.68629 0 6 0H26C29.3137 0 32 2.68629 32 6V26C32 29.3137 29.3137 32 26 32H6C2.68629 32 0 29.3137 0 26V6Z" fill="#21D99A"/>
<path d="M11.8346 23.2182V21.8332C11.8346 21.3911 12.0102 20.9672 12.3228 20.6547C12.6354 20.3421 13.0593 20.1665 13.5013 20.1665H18.5013C18.9433 20.1665 19.3673 20.3421 19.6798 20.6547C19.9924 20.9672 20.168 21.3911 20.168 21.8332V23.2182M24.3346 15.9998C24.3346 20.6022 20.6037 24.3332 16.0013 24.3332C11.3989 24.3332 7.66797 20.6022 7.66797 15.9998C7.66797 11.3975 11.3989 7.6665 16.0013 7.6665C20.6037 7.6665 24.3346 11.3975 24.3346 15.9998ZM18.5013 14.3332C18.5013 15.7139 17.382 16.8332 16.0013 16.8332C14.6206 16.8332 13.5013 15.7139 13.5013 14.3332C13.5013 12.9525 14.6206 11.8332 16.0013 11.8332C17.382 11.8332 18.5013 12.9525 18.5013 14.3332Z" stroke="white" stroke-linecap="round" stroke-linejoin="round"/>
</svg>
