<svg width="24" height="19" viewBox="0 0 24 19" fill="none" xmlns="http://www.w3.org/2000/svg">
<path d="M19.6351 2.40784C18.1937 1.74862 16.663 1.26816 15.0652 1C14.864 1.34638 14.6405 1.81565 14.4842 2.18438C12.7847 1.93856 11.0975 1.93856 9.42146 2.18438C9.26503 1.81565 9.03037 1.34638 8.84042 1C7.23148 1.26816 5.70072 1.74862 4.26941 2.40784C1.37551 6.67607 0.593363 10.8437 0.98443 14.9555C2.90625 16.3522 4.76105 17.2014 6.58344 17.7601C7.03037 17.1567 7.43262 16.5087 7.779 15.827C7.11976 15.5813 6.49405 15.2796 5.89069 14.922C6.04712 14.8103 6.20355 14.6875 6.34881 14.5645C9.99132 16.2294 13.9366 16.2294 17.5345 14.5645C17.6909 14.6875 17.8362 14.8103 17.9926 14.922C17.3892 15.2796 16.7635 15.5813 16.1042 15.827C16.4506 16.5087 16.8529 17.1567 17.2999 17.7601C19.1211 17.2014 20.9871 16.3522 22.8988 14.9555C23.3793 10.1957 22.1379 6.06157 19.6351 2.40784ZM8.28179 12.4192C7.18678 12.4192 6.29291 11.4248 6.29291 10.2069C6.29291 8.98902 7.16444 7.99453 8.28179 7.99453C9.38794 7.99453 10.293 8.98902 10.2706 10.2069C10.2706 11.4248 9.38794 12.4192 8.28179 12.4192ZM15.6238 12.4192C14.5288 12.4192 13.6338 11.4248 13.6338 10.2069C13.6338 8.98902 14.5065 7.99453 15.6238 7.99453C16.73 7.99453 17.6351 8.98902 17.6126 10.2069C17.6126 11.4248 16.7412 12.4192 15.6238 12.4192Z" stroke="#21D99A" stroke-linejoin="round"/>
</svg>
