<svg width="27" height="27" viewBox="0 0 27 27" fill="none" xmlns="http://www.w3.org/2000/svg">
<path d="M7.0999 15.4774L8.70294 12.2713C8.88752 11.905 9.17037 11.5972 9.51985 11.3825C9.86933 11.1677 10.2717 11.0544 10.6819 11.0552H22.5775M22.5775 11.0552C22.9153 11.0546 23.2487 11.1314 23.5522 11.2797C23.8556 11.428 24.1211 11.6439 24.3282 11.9107C24.5353 12.1776 24.6785 12.4883 24.7468 12.8191C24.8151 13.1499 24.8067 13.492 24.7222 13.8191L23.0086 20.4523C22.8859 20.9276 22.6086 21.3485 22.2202 21.6487C21.8319 21.949 21.3547 22.1115 20.8639 22.1106H4.88882C4.3024 22.1106 3.74 21.8777 3.32535 21.463C2.91069 21.0483 2.67773 20.4859 2.67773 19.8995V5.52749C2.67773 4.31139 3.67272 3.31641 4.88882 3.31641H9.2336C9.59778 3.31829 9.95586 3.4101 10.276 3.58368C10.5962 3.75726 10.8685 4.00724 11.0688 4.31139L11.9753 5.63804C12.1756 5.9422 12.448 6.19218 12.7681 6.36576C13.0883 6.53934 13.4464 6.63115 13.8105 6.63303H20.3664C20.9528 6.63303 21.5152 6.86598 21.9299 7.28064C22.3445 7.6953 22.5775 8.2577 22.5775 8.84411V11.0552ZM17.0498 16.5829C17.0498 17.1935 16.5548 17.6884 15.9442 17.6884C15.3337 17.6884 14.8387 17.1935 14.8387 16.5829C14.8387 15.9723 15.3337 15.4774 15.9442 15.4774C16.5548 15.4774 17.0498 15.9723 17.0498 16.5829Z" stroke="#21D99A" stroke-width="1.33" stroke-linecap="round" stroke-linejoin="round"/>
</svg>
