<svg width="32" height="32" viewBox="0 0 32 32" fill="none" xmlns="http://www.w3.org/2000/svg">
<path d="M0 6C0 2.68629 2.68629 0 6 0H26C29.3137 0 32 2.68629 32 6V26C32 29.3137 29.3137 32 26 32H6C2.68629 32 0 29.3137 0 26V6Z" fill="#4C5CE5"/>
<path d="M16.0013 17.6667L19.3346 14.3334M8.78464 21.8334C8.05315 20.5666 7.66802 19.1295 7.66797 17.6667C7.66791 16.2038 8.05293 14.7667 8.78432 13.4999C9.51571 12.233 10.5677 11.181 11.8345 10.4495C13.1014 9.71808 14.5385 9.33301 16.0013 9.33301C17.4641 9.33301 18.9012 9.71808 20.1681 10.4495C21.4349 11.181 22.4869 12.233 23.2183 13.4999C23.9497 14.7667 24.3347 16.2038 24.3346 17.6667C24.3346 19.1295 23.9495 20.5666 23.218 21.8334" stroke="white" stroke-linecap="round" stroke-linejoin="round"/>
</svg>
