<svg width="28" height="27" viewBox="0 0 28 27" fill="none" xmlns="http://www.w3.org/2000/svg">
<path d="M20.8663 16.5829C19.0346 16.5829 17.5497 18.0678 17.5497 19.8995C17.5497 21.7313 19.0346 23.2162 20.8663 23.2162C22.698 23.2162 24.183 21.7313 24.183 19.8995C24.183 18.0678 22.698 16.5829 20.8663 16.5829ZM20.8663 16.5829V8.84411C20.8663 8.2577 20.6334 7.6953 20.2187 7.28064C19.8041 6.86598 19.2417 6.63303 18.6552 6.63303H15.3386M7.59983 9.94966C9.43155 9.94966 10.9165 8.46475 10.9165 6.63303C10.9165 4.80131 9.43155 3.31641 7.59983 3.31641C5.76811 3.31641 4.2832 4.80131 4.2832 6.63303C4.2832 8.46475 5.76811 9.94966 7.59983 9.94966ZM7.59983 9.94966V17.6884C7.59983 18.2749 7.83278 18.8373 8.24744 19.2519C8.6621 19.6666 9.2245 19.8995 9.81091 19.8995H13.1275" stroke="#21D99A" stroke-width="1.33" stroke-linecap="round" stroke-linejoin="round"/>
</svg>
