<svg width="27" height="27" viewBox="0 0 27 27" fill="none" xmlns="http://www.w3.org/2000/svg">
<path d="M17.0498 24.3218V19.8996C17.2036 18.5147 16.8065 17.1248 15.9443 16.0302C19.2609 16.0302 22.5775 13.8191 22.5775 9.94973C22.666 8.5678 22.279 7.20799 21.472 6.08033C21.7815 4.80896 21.7815 3.48231 21.472 2.21094C21.472 2.21094 20.3664 2.21094 18.1554 3.86925C15.2367 3.31648 12.2297 3.31648 9.31103 3.86925C7.09994 2.21094 5.9944 2.21094 5.9944 2.21094C5.66274 3.48231 5.66274 4.80896 5.9944 6.08033C5.18943 7.20344 4.79873 8.57088 4.88886 9.94973C4.88886 13.8191 8.20548 16.0302 11.5221 16.0302C11.0909 16.5719 10.7703 17.191 10.5824 17.8544C10.3945 18.5177 10.3392 19.2142 10.4166 19.8996M10.4166 19.8996V24.3218M10.4166 19.8996C5.43057 22.1107 4.88882 17.6885 2.67773 17.6885" stroke="#21D99A" stroke-width="1.33" stroke-linecap="round" stroke-linejoin="round"/>
</svg>
