<svg width="19" height="19" viewBox="0 0 19 19" fill="none" xmlns="http://www.w3.org/2000/svg">
<path d="M2.30273 9.2114C2.30273 10.5778 2.70792 11.9135 3.46706 13.0497C4.22619 14.1858 5.30518 15.0713 6.56757 15.5942C7.82996 16.1171 9.21907 16.2539 10.5592 15.9873C11.8994 15.7208 13.1304 15.0628 14.0966 14.0966C15.0628 13.1304 15.7208 11.8994 15.9873 10.5592C16.2539 9.21907 16.1171 7.82996 15.5942 6.56757C15.0713 5.30518 14.1858 4.22619 13.0497 3.46706C11.9135 2.70792 10.5778 2.30273 9.2114 2.30273C7.28001 2.31 5.4262 3.06363 4.03758 4.40604L2.30273 6.14088M2.30273 6.14088V2.30273M2.30273 6.14088H6.14088M9.2114 5.37325V9.2114L12.2819 10.7467" stroke="#E5E9FD" stroke-width="1.33" stroke-linecap="round" stroke-linejoin="round"/>
</svg>
