<svg width="32" height="32" viewBox="0 0 32 32" fill="none" xmlns="http://www.w3.org/2000/svg">
<path d="M0 6C0 2.68629 2.68629 0 6 0H26C29.3137 0 32 2.68629 32 6V26C32 29.3137 29.3137 32 26 32H6C2.68629 32 0 29.3137 0 26V6Z" fill="#4C5CE5"/>
<path d="M19.334 9.33317H21.0007C21.4427 9.33317 21.8666 9.50877 22.1792 9.82133C22.4917 10.1339 22.6673 10.5578 22.6673 10.9998V22.6665C22.6673 23.1085 22.4917 23.5325 22.1792 23.845C21.8666 24.1576 21.4427 24.3332 21.0007 24.3332H11.0007C10.5586 24.3332 10.1347 24.1576 9.82214 23.845C9.50958 23.5325 9.33398 23.1085 9.33398 22.6665V10.9998C9.33398 10.5578 9.50958 10.1339 9.82214 9.82133C10.1347 9.50877 10.5586 9.33317 11.0007 9.33317H12.6673M13.5007 15.9998V15.1665H18.5007V15.9998M15.1673 20.1665H16.834M16.0007 15.1665V20.1665M13.5007 7.6665H18.5007C18.9609 7.6665 19.334 8.0396 19.334 8.49984V10.1665C19.334 10.6267 18.9609 10.9998 18.5007 10.9998H13.5007C13.0404 10.9998 12.6673 10.6267 12.6673 10.1665V8.49984C12.6673 8.0396 13.0404 7.6665 13.5007 7.6665Z" stroke="white" stroke-linecap="round" stroke-linejoin="round"/>
</svg>
