<svg width="32" height="32" viewBox="0 0 32 32" fill="none" xmlns="http://www.w3.org/2000/svg">
<path d="M0 6C0 2.68629 2.68629 0 6 0H26C29.3137 0 32 2.68629 32 6V26C32 29.3137 29.3137 32 26 32H6C2.68629 32 0 29.3137 0 26V6Z" fill="#4C5CE5"/>
<path d="M17.7081 7.6665C19.4066 7.84548 20.9932 8.59884 22.2055 9.80199C23.4177 11.0051 24.183 12.586 24.3748 14.2832M17.7081 10.9998C18.5277 11.1615 19.2798 11.5657 19.8667 12.1601C20.4537 12.7545 20.8485 13.5116 20.9998 14.3332M24.3332 20.0999V22.5999C24.3341 22.832 24.2866 23.0617 24.1936 23.2744C24.1006 23.487 23.9643 23.6779 23.7933 23.8348C23.6222 23.9917 23.4203 24.1112 23.2005 24.1855C22.9806 24.2599 22.7477 24.2875 22.5165 24.2666C19.9522 23.988 17.489 23.1117 15.3249 21.7083C13.3114 20.4288 11.6043 18.7217 10.3249 16.7083C8.91651 14.5343 8.04007 12.0591 7.76653 9.48325C7.7457 9.25281 7.77309 9.02055 7.84695 8.80127C7.9208 8.58199 8.03951 8.38049 8.1955 8.2096C8.3515 8.03871 8.54137 7.90218 8.75302 7.80869C8.96468 7.7152 9.19348 7.6668 9.42486 7.66658H11.9249C12.3293 7.6626 12.7214 7.80582 13.028 8.06953C13.3346 8.33324 13.5349 8.69946 13.5915 9.09992C13.697 9.89997 13.8927 10.6855 14.1749 11.4416C14.287 11.7399 14.3112 12.064 14.2448 12.3757C14.1783 12.6873 14.0239 12.9733 13.7999 13.1999L12.7415 14.2583C13.9278 16.3445 15.6552 18.072 17.7415 19.2583L18.7999 18.1999C19.0264 17.9759 19.3125 17.8215 19.6241 17.755C19.9358 17.6885 20.2599 17.7128 20.5582 17.8249C21.3143 18.107 22.0998 18.3027 22.8999 18.4083C23.3047 18.4654 23.6744 18.6693 23.9386 18.9812C24.2029 19.2931 24.3433 19.6912 24.3332 20.0999Z" stroke="white" stroke-linecap="round" stroke-linejoin="round"/>
</svg>
