<svg width="32" height="32" viewBox="0 0 32 32" fill="none" xmlns="http://www.w3.org/2000/svg">
<path d="M0 6C0 2.68629 2.68629 0 6 0H26C29.3137 0 32 2.68629 32 6V26C32 29.3137 29.3137 32 26 32H6C2.68629 32 0 29.3137 0 26V6Z" fill="#4C5CE5"/>
<path d="M15.166 20.1666L16.8327 21.8333C16.9968 21.9974 17.1917 22.1276 17.4062 22.2165C17.6207 22.3053 17.8505 22.351 18.0827 22.351C18.3148 22.351 18.5447 22.3053 18.7592 22.2165C18.9737 22.1276 19.1685 21.9974 19.3327 21.8333C19.4968 21.6691 19.627 21.4742 19.7159 21.2597C19.8047 21.0453 19.8505 20.8154 19.8505 20.5833C19.8505 20.3511 19.8047 20.1212 19.7159 19.9068C19.627 19.6923 19.4968 19.4974 19.3327 19.3333M17.6662 17.6666L19.7495 19.7499C20.0811 20.0815 20.5307 20.2677 20.9995 20.2677C21.4684 20.2677 21.918 20.0815 22.2495 19.7499C22.5811 19.4184 22.7673 18.9688 22.7673 18.4999C22.7673 18.0311 22.5811 17.5815 22.2495 17.2499L19.0162 14.0166C18.5475 13.5484 17.912 13.2855 17.2495 13.2855C16.587 13.2855 15.9516 13.5484 15.4829 14.0166L14.7495 14.7499C14.418 15.0815 13.9684 15.2677 13.4995 15.2677C13.0307 15.2677 12.5811 15.0815 12.2495 14.7499C11.918 14.4184 11.7318 13.9688 11.7318 13.4999C11.7318 13.0311 11.918 12.5815 12.2495 12.2499L14.5912 9.90826C15.3514 9.15005 16.3428 8.66706 17.4084 8.53574C18.474 8.40443 19.553 8.63229 20.4745 9.18326L20.8662 9.4166C21.221 9.63075 21.6429 9.70503 22.0495 9.62493L23.4995 9.33326M23.4993 8.49992L24.3327 17.6666H22.666M8.49935 8.49992L7.66602 17.6666L13.0827 23.0833C13.4142 23.4148 13.8638 23.601 14.3327 23.601C14.8015 23.601 15.2512 23.4148 15.5827 23.0833C15.9142 22.7517 16.1004 22.3021 16.1004 21.8333C16.1004 21.3644 15.9142 20.9148 15.5827 20.5833M8.49935 9.33325H15.166" stroke="white" stroke-linecap="round" stroke-linejoin="round"/>
</svg>
