<svg width="32" height="32" viewBox="0 0 32 32" fill="none" xmlns="http://www.w3.org/2000/svg">
<path d="M0 6C0 2.68629 2.68629 0 6 0H26C29.3137 0 32 2.68629 32 6V26C32 29.3137 29.3137 32 26 32H6C2.68629 32 0 29.3137 0 26V6Z" fill="#4C5CE5"/>
<path d="M24.3346 20.7083L16.693 24.175C16.4758 24.274 16.24 24.3253 16.0013 24.3253C15.7626 24.3253 15.5268 24.274 15.3096 24.175L7.66797 20.7083M24.3346 16.5416L16.693 20.0083C16.4758 20.1073 16.24 20.1586 16.0013 20.1586C15.7626 20.1586 15.5268 20.1073 15.3096 20.0083L7.66797 16.5416M16.6929 7.8168C16.4758 7.71776 16.2399 7.6665 16.0013 7.6665C15.7626 7.6665 15.5267 7.71776 15.3096 7.8168L8.16794 11.0668C8.02006 11.132 7.89434 11.2388 7.80607 11.3742C7.71781 11.5096 7.67082 11.6677 7.67082 11.8293C7.67082 11.9909 7.71781 12.149 7.80607 12.2844C7.89434 12.4198 8.02006 12.5266 8.16794 12.5918L15.3179 15.8501C15.5351 15.9492 15.7709 16.0004 16.0096 16.0004C16.2483 16.0004 16.4841 15.9492 16.7013 15.8501L23.8513 12.6001C23.9991 12.5349 24.1249 12.4281 24.2131 12.2928C24.3014 12.1574 24.3484 11.9992 24.3484 11.8376C24.3484 11.676 24.3014 11.5179 24.2131 11.3825C24.1249 11.2471 23.9991 11.1403 23.8513 11.0751L16.6929 7.8168Z" stroke="white" stroke-linecap="round" stroke-linejoin="round"/>
</svg>
