<svg width="32" height="32" viewBox="0 0 32 32" fill="none" xmlns="http://www.w3.org/2000/svg">
<path d="M0 6C0 2.68629 2.68629 0 6 0H26C29.3137 0 32 2.68629 32 6V26C32 29.3137 29.3137 32 26 32H6C2.68629 32 0 29.3137 0 26V6Z" fill="#21D99A"/>
<path d="M13.5 8.5H9.33333C8.8731 8.5 8.5 8.8731 8.5 9.33333V15.1667C8.5 15.6269 8.8731 16 9.33333 16H13.5C13.9602 16 14.3333 15.6269 14.3333 15.1667V9.33333C14.3333 8.8731 13.9602 8.5 13.5 8.5Z" stroke="white" stroke-linecap="round" stroke-linejoin="round"/>
<path d="M22.6667 8.5H18.5C18.0398 8.5 17.6667 8.8731 17.6667 9.33333V11.8333C17.6667 12.2936 18.0398 12.6667 18.5 12.6667H22.6667C23.1269 12.6667 23.5 12.2936 23.5 11.8333V9.33333C23.5 8.8731 23.1269 8.5 22.6667 8.5Z" stroke="white" stroke-linecap="round" stroke-linejoin="round"/>
<path d="M22.6667 16H18.5C18.0398 16 17.6667 16.3731 17.6667 16.8333V22.6667C17.6667 23.1269 18.0398 23.5 18.5 23.5H22.6667C23.1269 23.5 23.5 23.1269 23.5 22.6667V16.8333C23.5 16.3731 23.1269 16 22.6667 16Z" stroke="white" stroke-linecap="round" stroke-linejoin="round"/>
<path d="M13.5 19.3333H9.33333C8.8731 19.3333 8.5 19.7064 8.5 20.1667V22.6667C8.5 23.1269 8.8731 23.5 9.33333 23.5H13.5C13.9602 23.5 14.3333 23.1269 14.3333 22.6667V20.1667C14.3333 19.7064 13.9602 19.3333 13.5 19.3333Z" stroke="white" stroke-linecap="round" stroke-linejoin="round"/>
</svg>
