<svg width="27" height="27" viewBox="0 0 27 27" fill="none" xmlns="http://www.w3.org/2000/svg">
<path d="M17.0497 6.3723C16.7066 6.3723 16.3682 6.29246 16.0614 6.1391L11.4048 3.81083C11.0979 3.65747 10.7595 3.57764 10.4165 3.57764M17.0497 6.3723C17.3928 6.3723 17.7312 6.29246 18.0381 6.1391L22.0832 4.11596C22.2519 4.03167 22.4393 3.99193 22.6277 4.00051C22.8161 4.00909 22.9991 4.0657 23.1594 4.16497C23.3198 4.26424 23.452 4.40286 23.5436 4.56766C23.6353 4.73247 23.6832 4.91796 23.683 5.10653V19.2177C23.6828 19.4229 23.6256 19.6241 23.5176 19.7987C23.4096 19.9732 23.2552 20.1143 23.0716 20.206L18.0381 22.7233C17.7312 22.8767 17.3928 22.9565 17.0497 22.9565C16.7066 22.9565 16.3682 22.8767 16.0614 22.7233L11.4048 20.3951C11.0979 20.2417 10.7595 20.1619 10.4165 20.1619C10.0734 20.1619 9.735 20.2417 9.4281 20.3951L5.38293 22.4182C5.21417 22.5025 5.02663 22.5423 4.83818 22.5336C4.64972 22.525 4.4666 22.4683 4.30626 22.3689C4.14591 22.2695 4.01367 22.1307 3.92211 21.9658C3.83056 21.8008 3.78274 21.6152 3.78321 21.4265V7.3165C3.78332 7.11125 3.84057 6.91007 3.94854 6.73551C4.05652 6.56095 4.21096 6.4199 4.39457 6.32815L9.4281 3.81083C9.735 3.65747 10.0734 3.57764 10.4165 3.57764M17.0497 6.3723L17.0497 22.9554M10.4165 3.57764L10.4165 20.1608" stroke="#21D99A" stroke-width="1.33" stroke-linecap="round" stroke-linejoin="round"/>
</svg>
