<svg width="28" height="28" viewBox="0 0 28 28" fill="none" xmlns="http://www.w3.org/2000/svg">
<path d="M5.83398 18.6663V15.1663C5.83398 14.8569 5.9569 14.5602 6.17569 14.3414C6.39449 14.1226 6.69123 13.9997 7.00065 13.9997H21.0007C21.3101 13.9997 21.6068 14.1226 21.8256 14.3414C22.0444 14.5602 22.1673 14.8569 22.1673 15.1663V18.6663M14.0007 13.9997V9.33301M19.834 18.6663H24.5007C25.145 18.6663 25.6673 19.1887 25.6673 19.833V24.4997C25.6673 25.144 25.145 25.6663 24.5007 25.6663H19.834C19.1897 25.6663 18.6673 25.144 18.6673 24.4997V19.833C18.6673 19.1887 19.1897 18.6663 19.834 18.6663ZM3.50065 18.6663H8.16732C8.81165 18.6663 9.33398 19.1887 9.33398 19.833V24.4997C9.33398 25.144 8.81165 25.6663 8.16732 25.6663H3.50065C2.85632 25.6663 2.33398 25.144 2.33398 24.4997V19.833C2.33398 19.1887 2.85632 18.6663 3.50065 18.6663ZM11.6673 2.33301H16.334C16.9783 2.33301 17.5007 2.85534 17.5007 3.49967V8.16634C17.5007 8.81067 16.9783 9.33301 16.334 9.33301H11.6673C11.023 9.33301 10.5007 8.81067 10.5007 8.16634V3.49967C10.5007 2.85534 11.023 2.33301 11.6673 2.33301Z" stroke="#21D99A" stroke-width="1.33" stroke-linecap="round" stroke-linejoin="round"/>
</svg>
