<svg width="50" height="50" viewBox="0 0 50 50" fill="none" xmlns="http://www.w3.org/2000/svg">
<path d="M26.5 17.3717C25.8406 17.3717 25.1902 17.2183 24.6003 16.9235L15.6498 12.4482C15.0599 12.1535 14.4095 12 13.75 12M26.5 17.3717C27.1595 17.3717 27.8099 17.2183 28.3998 16.9235L36.1751 13.0347C36.4993 12.8727 36.8596 12.7963 37.2217 12.8128C37.5837 12.8293 37.9356 12.9381 38.2437 13.1289C38.5519 13.3197 38.8061 13.5862 38.9822 13.903C39.1584 14.2197 39.2505 14.5763 39.25 14.9387V42.0622C39.2498 42.4568 39.1398 42.8434 38.9322 43.179C38.7247 43.5145 38.4278 43.7856 38.0749 43.962L28.3998 48.8006C27.8099 49.0954 27.1595 49.2488 26.5 49.2488C25.8406 49.2488 25.1902 49.0954 24.6003 48.8006L15.6498 44.3254C15.0599 44.0306 14.4095 43.8771 13.75 43.8771C13.0906 43.8771 12.4402 44.0306 11.8503 44.3254L4.07488 48.2141C3.7505 48.3762 3.39004 48.4526 3.0278 48.436C2.66556 48.4194 2.31359 48.3104 2.00538 48.1193C1.69717 47.9283 1.44298 47.6615 1.26701 47.3445C1.09103 47.0274 0.999112 46.6706 1.00001 46.308V19.1866C1.00022 18.7921 1.11026 18.4054 1.31781 18.0699C1.52535 17.7343 1.82221 17.4632 2.17513 17.2869L11.8503 12.4482C12.4402 12.1535 13.0906 12 13.75 12M26.5 17.3717L26.5 49.2466M13.75 12L13.75 43.875" stroke="#4C5CE5" stroke-linecap="round" stroke-linejoin="round"/>
<rect x="31" width="19" height="19" rx="4" fill="#4C5CE5"/>
<path d="M42.8569 7.28592L44.1711 8.60021C44.278 8.70491 44.4216 8.76356 44.5711 8.76356C44.7207 8.76356 44.8643 8.70491 44.9711 8.60021L46.1711 7.40021C46.2758 7.29339 46.3345 7.14978 46.3345 7.00021C46.3345 6.85064 46.2758 6.70703 46.1711 6.60021L44.8569 5.28592M45.9997 4.14307L40.514 9.62878M41.4283 11.8574C41.4283 13.5931 40.0212 15.0002 38.2854 15.0002C36.5497 15.0002 35.1426 13.5931 35.1426 11.8574C35.1426 10.1216 36.5497 8.71449 38.2854 8.71449C40.0212 8.71449 41.4283 10.1216 41.4283 11.8574Z" stroke="white" stroke-linecap="round" stroke-linejoin="round"/>
</svg>
