<svg width="27" height="27" viewBox="0 0 27 27" fill="none" xmlns="http://www.w3.org/2000/svg">
<path d="M13.734 22.1108H23.6838M17.0506 5.52771L20.3672 8.84433M18.5718 4.00425C19.0119 3.56414 19.6088 3.31689 20.2312 3.31689C20.8536 3.31689 21.4505 3.56414 21.8906 4.00425C22.3307 4.44435 22.578 5.04126 22.578 5.66367C22.578 6.28607 22.3307 6.88298 21.8906 7.32308L8.61306 20.6017C8.35004 20.8647 8.02493 21.0572 7.66782 21.1611L4.4927 22.0876C4.39757 22.1153 4.29673 22.117 4.20074 22.0924C4.10475 22.0678 4.01713 22.0179 3.94706 21.9478C3.87699 21.8777 3.82704 21.7901 3.80245 21.6941C3.77786 21.5981 3.77952 21.4973 3.80727 21.4022L4.73371 18.227C4.83788 17.8703 5.03027 17.5456 5.29311 17.2829L18.5718 4.00425Z" stroke="#21D99A" stroke-width="1.33" stroke-linecap="round" stroke-linejoin="round"/>
</svg>
