<svg width="16" height="16" viewBox="0 0 16 16" fill="none" xmlns="http://www.w3.org/2000/svg">
<g clip-path="url(#clip0_2321_520)">
<path d="M12.0007 8.66635L11.084 4.08368C11.0591 3.959 10.999 3.84405 10.9109 3.75239C10.8227 3.66072 10.7103 3.59617 10.5867 3.56635L2.15732 1.35168C2.04627 1.32483 1.93019 1.32697 1.82021 1.35789C1.71022 1.38882 1.61003 1.44748 1.52925 1.52827C1.44846 1.60906 1.38979 1.70925 1.35887 1.81923C1.32795 1.92921 1.32581 2.0453 1.35266 2.15635L3.56732 10.5857C3.59715 10.7093 3.6617 10.8218 3.75336 10.9099C3.84502 10.998 3.95997 11.0581 4.08466 11.083L8.66732 11.9997M1.53385 1.53304L6.39119 6.39037M10.4719 14.1951C10.3469 14.3201 10.1773 14.3903 10.0006 14.3903C9.82377 14.3903 9.65424 14.3201 9.52922 14.1951L8.47188 13.1377C8.3469 13.0127 8.27669 12.8432 8.27669 12.6664C8.27669 12.4896 8.3469 12.3201 8.47188 12.1951L12.1959 8.47107C12.3209 8.34609 12.4904 8.27588 12.6672 8.27588C12.844 8.27588 13.0135 8.34609 13.1386 8.47107L14.1959 9.5284C14.3209 9.65342 14.3911 9.82296 14.3911 9.99974C14.3911 10.1765 14.3209 10.3461 14.1959 10.4711L10.4719 14.1951ZM8.66732 7.33301C8.66732 8.06939 8.07036 8.66634 7.33398 8.66634C6.5976 8.66634 6.00065 8.06939 6.00065 7.33301C6.00065 6.59663 6.5976 5.99967 7.33398 5.99967C8.07036 5.99967 8.66732 6.59663 8.66732 7.33301Z" stroke="#21D99A" stroke-width="1.33" stroke-linecap="round" stroke-linejoin="round"/>
</g>
<defs>
<clipPath id="clip0_2321_520">
<rect width="16" height="16" fill="white"/>
</clipPath>
</defs>
</svg>
