<svg width="29" height="28" viewBox="0 0 29 28" fill="none" xmlns="http://www.w3.org/2000/svg">
<path d="M24.7479 10.3926V6.92854C24.7479 6.31605 24.5046 5.72865 24.0715 5.29555C23.6384 4.86245 23.051 4.61914 22.4385 4.61914H5.11799C4.5055 4.61914 3.9181 4.86245 3.485 5.29555C3.0519 5.72865 2.80859 6.31605 2.80859 6.92854V18.4755C2.80859 19.7457 3.84782 20.7849 5.11799 20.7849H9.7368M16.665 15.0114H23.5932C24.8686 15.0114 25.9026 16.0454 25.9026 17.3208V20.7849C25.9026 22.0604 24.8686 23.0943 23.5932 23.0943H16.665C15.3896 23.0943 14.3556 22.0604 14.3556 20.7849V17.3208C14.3556 16.0454 15.3896 15.0114 16.665 15.0114Z" stroke="#21D99A" stroke-width="1.33" stroke-linecap="round" stroke-linejoin="round"/>
</svg>
