<svg width="32" height="32" viewBox="0 0 32 32" fill="none" xmlns="http://www.w3.org/2000/svg">
<path d="M0 6C0 2.68629 2.68629 0 6 0H26C29.3137 0 32 2.68629 32 6V26C32 29.3137 29.3137 32 26 32H6C2.68629 32 0 29.3137 0 26V6Z" fill="#21D99A"/>
<path d="M16 8.5H10.1667C9.72464 8.5 9.30072 8.67559 8.98816 8.98816C8.67559 9.30072 8.5 9.72464 8.5 10.1667V21.8333C8.5 22.2754 8.67559 22.6993 8.98816 23.0118C9.30072 23.3244 9.72464 23.5 10.1667 23.5H21.8333C22.2754 23.5 22.6993 23.3244 23.0118 23.0118C23.3244 22.6993 23.5 22.2754 23.5 21.8333V16M17.6667 18.5H13.5M13.5 18.5V14.3333M13.5 18.5L23.5 8.5M19.3333 8.5H23.5M23.5 8.5V12.6667" stroke="white" stroke-linecap="round" stroke-linejoin="round"/>
</svg>
