<svg width="29" height="29" viewBox="0 0 29 29" fill="none" xmlns="http://www.w3.org/2000/svg">
<path d="M14.6418 3.53516H6.39218C5.76706 3.53516 5.16754 3.78348 4.72551 4.22551C4.28348 4.66754 4.03516 5.26706 4.03516 5.89218V22.3913C4.03516 23.0165 4.28348 23.616 4.72551 24.058C5.16754 24.5 5.76706 24.7484 6.39218 24.7484H22.8913C23.5165 24.7484 24.116 24.5 24.558 24.058C25 23.616 25.2484 23.0165 25.2484 22.3913V14.1418M16.9988 17.6773H11.1062M11.1062 17.6773V11.7847M11.1062 17.6773L25.2484 3.53516M19.3558 3.53516H25.2484M25.2484 3.53516V9.42771" stroke="#21D99A" stroke-width="1.33" stroke-linecap="round" stroke-linejoin="round"/>
</svg>
