<svg width="32" height="32" viewBox="0 0 32 32" fill="none" xmlns="http://www.w3.org/2000/svg">
<path d="M0 6C0 2.68629 2.68629 0 6 0H26C29.3137 0 32 2.68629 32 6V26C32 29.3137 29.3137 32 26 32H6C2.68629 32 0 29.3137 0 26V6Z" fill="#4C5CE5"/>
<path d="M9.33464 14.3332C8.41797 14.3332 7.66797 13.5832 7.66797 12.6665V9.33317C7.66797 8.4165 8.41797 7.6665 9.33464 7.6665H12.668C13.5846 7.6665 14.3346 8.4165 14.3346 9.33317M14.3346 19.3332C13.418 19.3332 12.668 18.5832 12.668 17.6665V14.3332C12.668 13.4165 13.418 12.6665 14.3346 12.6665H17.668C18.5846 12.6665 19.3346 13.4165 19.3346 14.3332M19.3346 17.6665H22.668C23.5884 17.6665 24.3346 18.4127 24.3346 19.3332V22.6665C24.3346 23.587 23.5884 24.3332 22.668 24.3332H19.3346C18.4142 24.3332 17.668 23.587 17.668 22.6665V19.3332C17.668 18.4127 18.4142 17.6665 19.3346 17.6665Z" stroke="white" stroke-linecap="round" stroke-linejoin="round"/>
</svg>
