<svg width="32" height="32" viewBox="0 0 32 32" fill="none" xmlns="http://www.w3.org/2000/svg">
<path d="M0 6C0 2.68629 2.68629 0 6 0H26C29.3137 0 32 2.68629 32 6V26C32 29.3137 29.3137 32 26 32H6C2.68629 32 0 29.3137 0 26V6Z" fill="#4C5CE5"/>
<path d="M14.5011 11.2499L11.2511 14.4999M11.8346 15.9998C11.8346 17.1504 10.9019 18.0832 9.7513 18.0832C8.60071 18.0832 7.66797 17.1504 7.66797 15.9998C7.66797 14.8492 8.60071 13.9165 9.7513 13.9165C10.9019 13.9165 11.8346 14.8492 11.8346 15.9998ZM11.8346 15.9998H20.168M20.168 15.9998C20.168 17.1504 21.1007 18.0832 22.2513 18.0832C23.4019 18.0832 24.3346 17.1504 24.3346 15.9998C24.3346 14.8492 23.4019 13.9165 22.2513 13.9165C21.1007 13.9165 20.168 14.8492 20.168 15.9998ZM17.5011 20.7499L20.7511 17.4999M18.0846 9.74984C18.0846 10.9004 17.1519 11.8332 16.0013 11.8332C14.8507 11.8332 13.918 10.9004 13.918 9.74984C13.918 8.59924 14.8507 7.6665 16.0013 7.6665C17.1519 7.6665 18.0846 8.59924 18.0846 9.74984ZM18.0846 22.2498C18.0846 23.4004 17.1519 24.3332 16.0013 24.3332C14.8507 24.3332 13.918 23.4004 13.918 22.2498C13.918 21.0992 14.8507 20.1665 16.0013 20.1665C17.1519 20.1665 18.0846 21.0992 18.0846 22.2498Z" stroke="white" stroke-linecap="round" stroke-linejoin="round"/>
</svg>
