<svg width="888" height="459" viewBox="0 0 888 459" fill="none" xmlns="http://www.w3.org/2000/svg">
<rect width="888" height="459" rx="4" fill="white"/>
<rect x="131" y="46" width="626" height="77" rx="8" fill="#067146"/>
<path d="M364.829 85.02C364.829 83.66 365.135 82.44 365.749 81.36C366.362 80.2667 367.195 79.4133 368.249 78.8C369.315 78.1867 370.495 77.88 371.789 77.88C373.309 77.88 374.635 78.2467 375.769 78.98C376.902 79.7133 377.729 80.7533 378.249 82.1H376.069C375.682 81.26 375.122 80.6133 374.389 80.16C373.669 79.7067 372.802 79.48 371.789 79.48C370.815 79.48 369.942 79.7067 369.169 80.16C368.395 80.6133 367.789 81.26 367.349 82.1C366.909 82.9267 366.689 83.9 366.689 85.02C366.689 86.1267 366.909 87.1 367.349 87.94C367.789 88.7667 368.395 89.4067 369.169 89.86C369.942 90.3133 370.815 90.54 371.789 90.54C372.802 90.54 373.669 90.32 374.389 89.88C375.122 89.4267 375.682 88.78 376.069 87.94H378.249C377.729 89.2733 376.902 90.3067 375.769 91.04C374.635 91.76 373.309 92.12 371.789 92.12C370.495 92.12 369.315 91.82 368.249 91.22C367.195 90.6067 366.362 89.76 365.749 88.68C365.135 87.6 364.829 86.38 364.829 85.02ZM390.678 81.04V92H388.858V90.38C388.511 90.94 388.025 91.38 387.398 91.7C386.785 92.0067 386.105 92.16 385.358 92.16C384.505 92.16 383.738 91.9867 383.058 91.64C382.378 91.28 381.838 90.7467 381.438 90.04C381.051 89.3333 380.858 88.4733 380.858 87.46V81.04H382.658V87.22C382.658 88.3 382.931 89.1333 383.478 89.72C384.025 90.2933 384.771 90.58 385.718 90.58C386.691 90.58 387.458 90.28 388.018 89.68C388.578 89.08 388.858 88.2067 388.858 87.06V81.04H390.678ZM397.631 92.18C396.791 92.18 396.038 92.04 395.371 91.76C394.704 91.4667 394.178 91.0667 393.791 90.56C393.404 90.04 393.191 89.4467 393.151 88.78H395.031C395.084 89.3267 395.338 89.7733 395.791 90.12C396.258 90.4667 396.864 90.64 397.611 90.64C398.304 90.64 398.851 90.4867 399.251 90.18C399.651 89.8733 399.851 89.4867 399.851 89.02C399.851 88.54 399.638 88.1867 399.211 87.96C398.784 87.72 398.124 87.4867 397.231 87.26C396.418 87.0467 395.751 86.8333 395.231 86.62C394.724 86.3933 394.284 86.0667 393.911 85.64C393.551 85.2 393.371 84.6267 393.371 83.92C393.371 83.36 393.538 82.8467 393.871 82.38C394.204 81.9133 394.678 81.5467 395.291 81.28C395.904 81 396.604 80.86 397.391 80.86C398.604 80.86 399.584 81.1667 400.331 81.78C401.078 82.3933 401.478 83.2333 401.531 84.3H399.711C399.671 83.7267 399.438 83.2667 399.011 82.92C398.598 82.5733 398.038 82.4 397.331 82.4C396.678 82.4 396.158 82.54 395.771 82.82C395.384 83.1 395.191 83.4667 395.191 83.92C395.191 84.28 395.304 84.58 395.531 84.82C395.771 85.0467 396.064 85.2333 396.411 85.38C396.771 85.5133 397.264 85.6667 397.891 85.84C398.678 86.0533 399.318 86.2667 399.811 86.48C400.304 86.68 400.724 86.9867 401.071 87.4C401.431 87.8133 401.618 88.3533 401.631 89.02C401.631 89.62 401.464 90.16 401.131 90.64C400.798 91.12 400.324 91.5 399.711 91.78C399.111 92.0467 398.418 92.18 397.631 92.18ZM406.42 82.54V89C406.42 89.5333 406.533 89.9133 406.76 90.14C406.987 90.3533 407.38 90.46 407.94 90.46H409.28V92H407.64C406.627 92 405.867 91.7667 405.36 91.3C404.853 90.8333 404.6 90.0667 404.6 89V82.54H403.18V81.04H404.6V78.28H406.42V81.04H409.28V82.54H406.42ZM416.265 92.18C415.239 92.18 414.305 91.9467 413.465 91.48C412.639 91.0133 411.985 90.3533 411.505 89.5C411.039 88.6333 410.805 87.6333 410.805 86.5C410.805 85.38 411.045 84.3933 411.525 83.54C412.019 82.6733 412.685 82.0133 413.525 81.56C414.365 81.0933 415.305 80.86 416.345 80.86C417.385 80.86 418.325 81.0933 419.165 81.56C420.005 82.0133 420.665 82.6667 421.145 83.52C421.639 84.3733 421.885 85.3667 421.885 86.5C421.885 87.6333 421.632 88.6333 421.125 89.5C420.632 90.3533 419.959 91.0133 419.105 91.48C418.252 91.9467 417.305 92.18 416.265 92.18ZM416.265 90.58C416.919 90.58 417.532 90.4267 418.105 90.12C418.679 89.8133 419.139 89.3533 419.485 88.74C419.845 88.1267 420.025 87.38 420.025 86.5C420.025 85.62 419.852 84.8733 419.505 84.26C419.159 83.6467 418.705 83.1933 418.145 82.9C417.585 82.5933 416.979 82.44 416.325 82.44C415.659 82.44 415.045 82.5933 414.485 82.9C413.939 83.1933 413.499 83.6467 413.165 84.26C412.832 84.8733 412.665 85.62 412.665 86.5C412.665 87.3933 412.825 88.1467 413.145 88.76C413.479 89.3733 413.919 89.8333 414.465 90.14C415.012 90.4333 415.612 90.58 416.265 90.58ZM437.458 80.84C438.312 80.84 439.072 81.02 439.738 81.38C440.405 81.7267 440.932 82.2533 441.318 82.96C441.705 83.6667 441.898 84.5267 441.898 85.54V92H440.098V85.8C440.098 84.7067 439.825 83.8733 439.278 83.3C438.745 82.7133 438.018 82.42 437.098 82.42C436.152 82.42 435.398 82.7267 434.838 83.34C434.278 83.94 433.998 84.8133 433.998 85.96V92H432.198V85.8C432.198 84.7067 431.925 83.8733 431.378 83.3C430.845 82.7133 430.118 82.42 429.198 82.42C428.252 82.42 427.498 82.7267 426.938 83.34C426.378 83.94 426.098 84.8133 426.098 85.96V92H424.278V81.04H426.098V82.62C426.458 82.0467 426.938 81.6067 427.538 81.3C428.152 80.9933 428.825 80.84 429.558 80.84C430.478 80.84 431.292 81.0467 431.998 81.46C432.705 81.8733 433.232 82.48 433.578 83.28C433.885 82.5067 434.392 81.9067 435.098 81.48C435.805 81.0533 436.592 80.84 437.458 80.84ZM454.884 86.1C454.884 86.4467 454.864 86.8133 454.824 87.2H446.064C446.13 88.28 446.497 89.1267 447.164 89.74C447.844 90.34 448.664 90.64 449.624 90.64C450.41 90.64 451.064 90.46 451.584 90.1C452.117 89.7267 452.49 89.2333 452.704 88.62H454.664C454.37 89.6733 453.784 90.5333 452.904 91.2C452.024 91.8533 450.93 92.18 449.624 92.18C448.584 92.18 447.65 91.9467 446.824 91.48C446.01 91.0133 445.37 90.3533 444.904 89.5C444.437 88.6333 444.204 87.6333 444.204 86.5C444.204 85.3667 444.43 84.3733 444.884 83.52C445.337 82.6667 445.97 82.0133 446.784 81.56C447.61 81.0933 448.557 80.86 449.624 80.86C450.664 80.86 451.584 81.0867 452.384 81.54C453.184 81.9933 453.797 82.62 454.224 83.42C454.664 84.2067 454.884 85.1 454.884 86.1ZM453.004 85.72C453.004 85.0267 452.85 84.4333 452.544 83.94C452.237 83.4333 451.817 83.0533 451.284 82.8C450.764 82.5333 450.184 82.4 449.544 82.4C448.624 82.4 447.837 82.6933 447.184 83.28C446.544 83.8667 446.177 84.68 446.084 85.72H453.004ZM459.106 82.82C459.426 82.1933 459.879 81.7067 460.466 81.36C461.066 81.0133 461.793 80.84 462.646 80.84V82.72H462.166C460.126 82.72 459.106 83.8267 459.106 86.04V92H457.286V81.04H459.106V82.82ZM471.899 83.06C472.259 82.4333 472.792 81.9133 473.499 81.5C474.219 81.0733 475.052 80.86 475.999 80.86C476.972 80.86 477.852 81.0933 478.639 81.56C479.439 82.0267 480.066 82.6867 480.519 83.54C480.972 84.38 481.199 85.36 481.199 86.48C481.199 87.5867 480.972 88.5733 480.519 89.44C480.066 90.3067 479.439 90.98 478.639 91.46C477.852 91.94 476.972 92.18 475.999 92.18C475.066 92.18 474.239 91.9733 473.519 91.56C472.812 91.1333 472.272 90.6067 471.899 89.98V97.2H470.079V81.04H471.899V83.06ZM479.339 86.48C479.339 85.6533 479.172 84.9333 478.839 84.32C478.506 83.7067 478.052 83.24 477.479 82.92C476.919 82.6 476.299 82.44 475.619 82.44C474.952 82.44 474.332 82.6067 473.759 82.94C473.199 83.26 472.746 83.7333 472.399 84.36C472.066 84.9733 471.899 85.6867 471.899 86.5C471.899 87.3267 472.066 88.0533 472.399 88.68C472.746 89.2933 473.199 89.7667 473.759 90.1C474.332 90.42 474.952 90.58 475.619 90.58C476.299 90.58 476.919 90.42 477.479 90.1C478.052 89.7667 478.506 89.2933 478.839 88.68C479.172 88.0533 479.339 87.32 479.339 86.48ZM488.375 92.18C487.348 92.18 486.415 91.9467 485.575 91.48C484.748 91.0133 484.095 90.3533 483.615 89.5C483.148 88.6333 482.915 87.6333 482.915 86.5C482.915 85.38 483.155 84.3933 483.635 83.54C484.128 82.6733 484.795 82.0133 485.635 81.56C486.475 81.0933 487.415 80.86 488.455 80.86C489.495 80.86 490.435 81.0933 491.275 81.56C492.115 82.0133 492.775 82.6667 493.255 83.52C493.748 84.3733 493.995 85.3667 493.995 86.5C493.995 87.6333 493.741 88.6333 493.235 89.5C492.741 90.3533 492.068 91.0133 491.215 91.48C490.361 91.9467 489.415 92.18 488.375 92.18ZM488.375 90.58C489.028 90.58 489.641 90.4267 490.215 90.12C490.788 89.8133 491.248 89.3533 491.595 88.74C491.955 88.1267 492.135 87.38 492.135 86.5C492.135 85.62 491.961 84.8733 491.615 84.26C491.268 83.6467 490.815 83.1933 490.255 82.9C489.695 82.5933 489.088 82.44 488.435 82.44C487.768 82.44 487.155 82.5933 486.595 82.9C486.048 83.1933 485.608 83.6467 485.275 84.26C484.941 84.8733 484.775 85.62 484.775 86.5C484.775 87.3933 484.935 88.1467 485.255 88.76C485.588 89.3733 486.028 89.8333 486.575 90.14C487.121 90.4333 487.721 90.58 488.375 90.58ZM498.208 82.82C498.528 82.1933 498.981 81.7067 499.568 81.36C500.168 81.0133 500.894 80.84 501.748 80.84V82.72H501.268C499.228 82.72 498.208 83.8267 498.208 86.04V92H496.388V81.04H498.208V82.82ZM506.069 82.54V89C506.069 89.5333 506.182 89.9133 506.409 90.14C506.635 90.3533 507.029 90.46 507.589 90.46H508.929V92H507.289C506.275 92 505.515 91.7667 505.009 91.3C504.502 90.8333 504.249 90.0667 504.249 89V82.54H502.829V81.04H504.249V78.28H506.069V81.04H508.929V82.54H506.069ZM510.454 86.48C510.454 85.36 510.68 84.38 511.134 83.54C511.587 82.6867 512.207 82.0267 512.994 81.56C513.794 81.0933 514.68 80.86 515.654 80.86C516.614 80.86 517.447 81.0667 518.154 81.48C518.86 81.8933 519.387 82.4133 519.734 83.04V81.04H521.574V92H519.734V89.96C519.374 90.6 518.834 91.1333 518.114 91.56C517.407 91.9733 516.58 92.18 515.634 92.18C514.66 92.18 513.78 91.94 512.994 91.46C512.207 90.98 511.587 90.3067 511.134 89.44C510.68 88.5733 510.454 87.5867 510.454 86.48ZM519.734 86.5C519.734 85.6733 519.567 84.9533 519.234 84.34C518.9 83.7267 518.447 83.26 517.874 82.94C517.314 82.6067 516.694 82.44 516.014 82.44C515.334 82.44 514.714 82.6 514.154 82.92C513.594 83.24 513.147 83.7067 512.814 84.32C512.48 84.9333 512.314 85.6533 512.314 86.48C512.314 87.32 512.48 88.0533 512.814 88.68C513.147 89.2933 513.594 89.7667 514.154 90.1C514.714 90.42 515.334 90.58 516.014 90.58C516.694 90.58 517.314 90.42 517.874 90.1C518.447 89.7667 518.9 89.2933 519.234 88.68C519.567 88.0533 519.734 87.3267 519.734 86.5ZM526.469 77.2V92H524.649V77.2H526.469Z" fill="white"/>
<path d="M364.829 85.02C364.829 83.66 365.135 82.44 365.749 81.36C366.362 80.2667 367.195 79.4133 368.249 78.8C369.315 78.1867 370.495 77.88 371.789 77.88C373.309 77.88 374.635 78.2467 375.769 78.98C376.902 79.7133 377.729 80.7533 378.249 82.1H376.069C375.682 81.26 375.122 80.6133 374.389 80.16C373.669 79.7067 372.802 79.48 371.789 79.48C370.815 79.48 369.942 79.7067 369.169 80.16C368.395 80.6133 367.789 81.26 367.349 82.1C366.909 82.9267 366.689 83.9 366.689 85.02C366.689 86.1267 366.909 87.1 367.349 87.94C367.789 88.7667 368.395 89.4067 369.169 89.86C369.942 90.3133 370.815 90.54 371.789 90.54C372.802 90.54 373.669 90.32 374.389 89.88C375.122 89.4267 375.682 88.78 376.069 87.94H378.249C377.729 89.2733 376.902 90.3067 375.769 91.04C374.635 91.76 373.309 92.12 371.789 92.12C370.495 92.12 369.315 91.82 368.249 91.22C367.195 90.6067 366.362 89.76 365.749 88.68C365.135 87.6 364.829 86.38 364.829 85.02ZM390.678 81.04V92H388.858V90.38C388.511 90.94 388.025 91.38 387.398 91.7C386.785 92.0067 386.105 92.16 385.358 92.16C384.505 92.16 383.738 91.9867 383.058 91.64C382.378 91.28 381.838 90.7467 381.438 90.04C381.051 89.3333 380.858 88.4733 380.858 87.46V81.04H382.658V87.22C382.658 88.3 382.931 89.1333 383.478 89.72C384.025 90.2933 384.771 90.58 385.718 90.58C386.691 90.58 387.458 90.28 388.018 89.68C388.578 89.08 388.858 88.2067 388.858 87.06V81.04H390.678ZM397.631 92.18C396.791 92.18 396.038 92.04 395.371 91.76C394.704 91.4667 394.178 91.0667 393.791 90.56C393.404 90.04 393.191 89.4467 393.151 88.78H395.031C395.084 89.3267 395.338 89.7733 395.791 90.12C396.258 90.4667 396.864 90.64 397.611 90.64C398.304 90.64 398.851 90.4867 399.251 90.18C399.651 89.8733 399.851 89.4867 399.851 89.02C399.851 88.54 399.638 88.1867 399.211 87.96C398.784 87.72 398.124 87.4867 397.231 87.26C396.418 87.0467 395.751 86.8333 395.231 86.62C394.724 86.3933 394.284 86.0667 393.911 85.64C393.551 85.2 393.371 84.6267 393.371 83.92C393.371 83.36 393.538 82.8467 393.871 82.38C394.204 81.9133 394.678 81.5467 395.291 81.28C395.904 81 396.604 80.86 397.391 80.86C398.604 80.86 399.584 81.1667 400.331 81.78C401.078 82.3933 401.478 83.2333 401.531 84.3H399.711C399.671 83.7267 399.438 83.2667 399.011 82.92C398.598 82.5733 398.038 82.4 397.331 82.4C396.678 82.4 396.158 82.54 395.771 82.82C395.384 83.1 395.191 83.4667 395.191 83.92C395.191 84.28 395.304 84.58 395.531 84.82C395.771 85.0467 396.064 85.2333 396.411 85.38C396.771 85.5133 397.264 85.6667 397.891 85.84C398.678 86.0533 399.318 86.2667 399.811 86.48C400.304 86.68 400.724 86.9867 401.071 87.4C401.431 87.8133 401.618 88.3533 401.631 89.02C401.631 89.62 401.464 90.16 401.131 90.64C400.798 91.12 400.324 91.5 399.711 91.78C399.111 92.0467 398.418 92.18 397.631 92.18ZM406.42 82.54V89C406.42 89.5333 406.533 89.9133 406.76 90.14C406.987 90.3533 407.38 90.46 407.94 90.46H409.28V92H407.64C406.627 92 405.867 91.7667 405.36 91.3C404.853 90.8333 404.6 90.0667 404.6 89V82.54H403.18V81.04H404.6V78.28H406.42V81.04H409.28V82.54H406.42ZM416.265 92.18C415.239 92.18 414.305 91.9467 413.465 91.48C412.639 91.0133 411.985 90.3533 411.505 89.5C411.039 88.6333 410.805 87.6333 410.805 86.5C410.805 85.38 411.045 84.3933 411.525 83.54C412.019 82.6733 412.685 82.0133 413.525 81.56C414.365 81.0933 415.305 80.86 416.345 80.86C417.385 80.86 418.325 81.0933 419.165 81.56C420.005 82.0133 420.665 82.6667 421.145 83.52C421.639 84.3733 421.885 85.3667 421.885 86.5C421.885 87.6333 421.632 88.6333 421.125 89.5C420.632 90.3533 419.959 91.0133 419.105 91.48C418.252 91.9467 417.305 92.18 416.265 92.18ZM416.265 90.58C416.919 90.58 417.532 90.4267 418.105 90.12C418.679 89.8133 419.139 89.3533 419.485 88.74C419.845 88.1267 420.025 87.38 420.025 86.5C420.025 85.62 419.852 84.8733 419.505 84.26C419.159 83.6467 418.705 83.1933 418.145 82.9C417.585 82.5933 416.979 82.44 416.325 82.44C415.659 82.44 415.045 82.5933 414.485 82.9C413.939 83.1933 413.499 83.6467 413.165 84.26C412.832 84.8733 412.665 85.62 412.665 86.5C412.665 87.3933 412.825 88.1467 413.145 88.76C413.479 89.3733 413.919 89.8333 414.465 90.14C415.012 90.4333 415.612 90.58 416.265 90.58ZM437.458 80.84C438.312 80.84 439.072 81.02 439.738 81.38C440.405 81.7267 440.932 82.2533 441.318 82.96C441.705 83.6667 441.898 84.5267 441.898 85.54V92H440.098V85.8C440.098 84.7067 439.825 83.8733 439.278 83.3C438.745 82.7133 438.018 82.42 437.098 82.42C436.152 82.42 435.398 82.7267 434.838 83.34C434.278 83.94 433.998 84.8133 433.998 85.96V92H432.198V85.8C432.198 84.7067 431.925 83.8733 431.378 83.3C430.845 82.7133 430.118 82.42 429.198 82.42C428.252 82.42 427.498 82.7267 426.938 83.34C426.378 83.94 426.098 84.8133 426.098 85.96V92H424.278V81.04H426.098V82.62C426.458 82.0467 426.938 81.6067 427.538 81.3C428.152 80.9933 428.825 80.84 429.558 80.84C430.478 80.84 431.292 81.0467 431.998 81.46C432.705 81.8733 433.232 82.48 433.578 83.28C433.885 82.5067 434.392 81.9067 435.098 81.48C435.805 81.0533 436.592 80.84 437.458 80.84ZM454.884 86.1C454.884 86.4467 454.864 86.8133 454.824 87.2H446.064C446.13 88.28 446.497 89.1267 447.164 89.74C447.844 90.34 448.664 90.64 449.624 90.64C450.41 90.64 451.064 90.46 451.584 90.1C452.117 89.7267 452.49 89.2333 452.704 88.62H454.664C454.37 89.6733 453.784 90.5333 452.904 91.2C452.024 91.8533 450.93 92.18 449.624 92.18C448.584 92.18 447.65 91.9467 446.824 91.48C446.01 91.0133 445.37 90.3533 444.904 89.5C444.437 88.6333 444.204 87.6333 444.204 86.5C444.204 85.3667 444.43 84.3733 444.884 83.52C445.337 82.6667 445.97 82.0133 446.784 81.56C447.61 81.0933 448.557 80.86 449.624 80.86C450.664 80.86 451.584 81.0867 452.384 81.54C453.184 81.9933 453.797 82.62 454.224 83.42C454.664 84.2067 454.884 85.1 454.884 86.1ZM453.004 85.72C453.004 85.0267 452.85 84.4333 452.544 83.94C452.237 83.4333 451.817 83.0533 451.284 82.8C450.764 82.5333 450.184 82.4 449.544 82.4C448.624 82.4 447.837 82.6933 447.184 83.28C446.544 83.8667 446.177 84.68 446.084 85.72H453.004ZM459.106 82.82C459.426 82.1933 459.879 81.7067 460.466 81.36C461.066 81.0133 461.793 80.84 462.646 80.84V82.72H462.166C460.126 82.72 459.106 83.8267 459.106 86.04V92H457.286V81.04H459.106V82.82ZM471.899 83.06C472.259 82.4333 472.792 81.9133 473.499 81.5C474.219 81.0733 475.052 80.86 475.999 80.86C476.972 80.86 477.852 81.0933 478.639 81.56C479.439 82.0267 480.066 82.6867 480.519 83.54C480.972 84.38 481.199 85.36 481.199 86.48C481.199 87.5867 480.972 88.5733 480.519 89.44C480.066 90.3067 479.439 90.98 478.639 91.46C477.852 91.94 476.972 92.18 475.999 92.18C475.066 92.18 474.239 91.9733 473.519 91.56C472.812 91.1333 472.272 90.6067 471.899 89.98V97.2H470.079V81.04H471.899V83.06ZM479.339 86.48C479.339 85.6533 479.172 84.9333 478.839 84.32C478.506 83.7067 478.052 83.24 477.479 82.92C476.919 82.6 476.299 82.44 475.619 82.44C474.952 82.44 474.332 82.6067 473.759 82.94C473.199 83.26 472.746 83.7333 472.399 84.36C472.066 84.9733 471.899 85.6867 471.899 86.5C471.899 87.3267 472.066 88.0533 472.399 88.68C472.746 89.2933 473.199 89.7667 473.759 90.1C474.332 90.42 474.952 90.58 475.619 90.58C476.299 90.58 476.919 90.42 477.479 90.1C478.052 89.7667 478.506 89.2933 478.839 88.68C479.172 88.0533 479.339 87.32 479.339 86.48ZM488.375 92.18C487.348 92.18 486.415 91.9467 485.575 91.48C484.748 91.0133 484.095 90.3533 483.615 89.5C483.148 88.6333 482.915 87.6333 482.915 86.5C482.915 85.38 483.155 84.3933 483.635 83.54C484.128 82.6733 484.795 82.0133 485.635 81.56C486.475 81.0933 487.415 80.86 488.455 80.86C489.495 80.86 490.435 81.0933 491.275 81.56C492.115 82.0133 492.775 82.6667 493.255 83.52C493.748 84.3733 493.995 85.3667 493.995 86.5C493.995 87.6333 493.741 88.6333 493.235 89.5C492.741 90.3533 492.068 91.0133 491.215 91.48C490.361 91.9467 489.415 92.18 488.375 92.18ZM488.375 90.58C489.028 90.58 489.641 90.4267 490.215 90.12C490.788 89.8133 491.248 89.3533 491.595 88.74C491.955 88.1267 492.135 87.38 492.135 86.5C492.135 85.62 491.961 84.8733 491.615 84.26C491.268 83.6467 490.815 83.1933 490.255 82.9C489.695 82.5933 489.088 82.44 488.435 82.44C487.768 82.44 487.155 82.5933 486.595 82.9C486.048 83.1933 485.608 83.6467 485.275 84.26C484.941 84.8733 484.775 85.62 484.775 86.5C484.775 87.3933 484.935 88.1467 485.255 88.76C485.588 89.3733 486.028 89.8333 486.575 90.14C487.121 90.4333 487.721 90.58 488.375 90.58ZM498.208 82.82C498.528 82.1933 498.981 81.7067 499.568 81.36C500.168 81.0133 500.894 80.84 501.748 80.84V82.72H501.268C499.228 82.72 498.208 83.8267 498.208 86.04V92H496.388V81.04H498.208V82.82ZM506.069 82.54V89C506.069 89.5333 506.182 89.9133 506.409 90.14C506.635 90.3533 507.029 90.46 507.589 90.46H508.929V92H507.289C506.275 92 505.515 91.7667 505.009 91.3C504.502 90.8333 504.249 90.0667 504.249 89V82.54H502.829V81.04H504.249V78.28H506.069V81.04H508.929V82.54H506.069ZM510.454 86.48C510.454 85.36 510.68 84.38 511.134 83.54C511.587 82.6867 512.207 82.0267 512.994 81.56C513.794 81.0933 514.68 80.86 515.654 80.86C516.614 80.86 517.447 81.0667 518.154 81.48C518.86 81.8933 519.387 82.4133 519.734 83.04V81.04H521.574V92H519.734V89.96C519.374 90.6 518.834 91.1333 518.114 91.56C517.407 91.9733 516.58 92.18 515.634 92.18C514.66 92.18 513.78 91.94 512.994 91.46C512.207 90.98 511.587 90.3067 511.134 89.44C510.68 88.5733 510.454 87.5867 510.454 86.48ZM519.734 86.5C519.734 85.6733 519.567 84.9533 519.234 84.34C518.9 83.7267 518.447 83.26 517.874 82.94C517.314 82.6067 516.694 82.44 516.014 82.44C515.334 82.44 514.714 82.6 514.154 82.92C513.594 83.24 513.147 83.7067 512.814 84.32C512.48 84.9333 512.314 85.6533 512.314 86.48C512.314 87.32 512.48 88.0533 512.814 88.68C513.147 89.2933 513.594 89.7667 514.154 90.1C514.714 90.42 515.334 90.58 516.014 90.58C516.694 90.58 517.314 90.42 517.874 90.1C518.447 89.7667 518.9 89.2933 519.234 88.68C519.567 88.0533 519.734 87.3267 519.734 86.5ZM526.469 77.2V92H524.649V77.2H526.469Z" fill="white"/>
<rect x="131" y="153" width="626" height="77" rx="8" fill="#5BA90A"/>
<path d="M391.182 196.9H385.102L383.982 200H382.062L387.102 186.14H389.202L394.222 200H392.302L391.182 196.9ZM390.662 195.42L388.142 188.38L385.622 195.42H390.662ZM400.939 188.86C401.886 188.86 402.712 189.067 403.419 189.48C404.139 189.893 404.672 190.413 405.019 191.04V189.04H406.859V200.24C406.859 201.24 406.646 202.127 406.219 202.9C405.792 203.687 405.179 204.3 404.379 204.74C403.592 205.18 402.672 205.4 401.619 205.4C400.179 205.4 398.979 205.06 398.019 204.38C397.059 203.7 396.492 202.773 396.319 201.6H398.119C398.319 202.267 398.732 202.8 399.359 203.2C399.986 203.613 400.739 203.82 401.619 203.82C402.619 203.82 403.432 203.507 404.059 202.88C404.699 202.253 405.019 201.373 405.019 200.24V197.94C404.659 198.58 404.126 199.113 403.419 199.54C402.712 199.967 401.886 200.18 400.939 200.18C399.966 200.18 399.079 199.94 398.279 199.46C397.492 198.98 396.872 198.307 396.419 197.44C395.966 196.573 395.739 195.587 395.739 194.48C395.739 193.36 395.966 192.38 396.419 191.54C396.872 190.687 397.492 190.027 398.279 189.56C399.079 189.093 399.966 188.86 400.939 188.86ZM405.019 194.5C405.019 193.673 404.852 192.953 404.519 192.34C404.186 191.727 403.732 191.26 403.159 190.94C402.599 190.607 401.979 190.44 401.299 190.44C400.619 190.44 399.999 190.6 399.439 190.92C398.879 191.24 398.432 191.707 398.099 192.32C397.766 192.933 397.599 193.653 397.599 194.48C397.599 195.32 397.766 196.053 398.099 196.68C398.432 197.293 398.879 197.767 399.439 198.1C399.999 198.42 400.619 198.58 401.299 198.58C401.979 198.58 402.599 198.42 403.159 198.1C403.732 197.767 404.186 197.293 404.519 196.68C404.852 196.053 405.019 195.327 405.019 194.5ZM414.455 188.86C415.401 188.86 416.228 189.067 416.935 189.48C417.655 189.893 418.188 190.413 418.535 191.04V189.04H420.375V200.24C420.375 201.24 420.161 202.127 419.735 202.9C419.308 203.687 418.695 204.3 417.895 204.74C417.108 205.18 416.188 205.4 415.135 205.4C413.695 205.4 412.495 205.06 411.535 204.38C410.575 203.7 410.008 202.773 409.835 201.6H411.635C411.835 202.267 412.248 202.8 412.875 203.2C413.501 203.613 414.255 203.82 415.135 203.82C416.135 203.82 416.948 203.507 417.575 202.88C418.215 202.253 418.535 201.373 418.535 200.24V197.94C418.175 198.58 417.641 199.113 416.935 199.54C416.228 199.967 415.401 200.18 414.455 200.18C413.481 200.18 412.595 199.94 411.795 199.46C411.008 198.98 410.388 198.307 409.935 197.44C409.481 196.573 409.255 195.587 409.255 194.48C409.255 193.36 409.481 192.38 409.935 191.54C410.388 190.687 411.008 190.027 411.795 189.56C412.595 189.093 413.481 188.86 414.455 188.86ZM418.535 194.5C418.535 193.673 418.368 192.953 418.035 192.34C417.701 191.727 417.248 191.26 416.675 190.94C416.115 190.607 415.495 190.44 414.815 190.44C414.135 190.44 413.515 190.6 412.955 190.92C412.395 191.24 411.948 191.707 411.615 192.32C411.281 192.933 411.115 193.653 411.115 194.48C411.115 195.32 411.281 196.053 411.615 196.68C411.948 197.293 412.395 197.767 412.955 198.1C413.515 198.42 414.135 198.58 414.815 198.58C415.495 198.58 416.115 198.42 416.675 198.1C417.248 197.767 417.701 197.293 418.035 196.68C418.368 196.053 418.535 195.327 418.535 194.5ZM425.27 190.82C425.59 190.193 426.043 189.707 426.63 189.36C427.23 189.013 427.957 188.84 428.81 188.84V190.72H428.33C426.29 190.72 425.27 191.827 425.27 194.04V200H423.45V189.04H425.27V190.82ZM440.911 194.1C440.911 194.447 440.891 194.813 440.851 195.2H432.091C432.158 196.28 432.524 197.127 433.191 197.74C433.871 198.34 434.691 198.64 435.651 198.64C436.438 198.64 437.091 198.46 437.611 198.1C438.144 197.727 438.518 197.233 438.731 196.62H440.691C440.398 197.673 439.811 198.533 438.931 199.2C438.051 199.853 436.958 200.18 435.651 200.18C434.611 200.18 433.678 199.947 432.851 199.48C432.038 199.013 431.398 198.353 430.931 197.5C430.464 196.633 430.231 195.633 430.231 194.5C430.231 193.367 430.458 192.373 430.911 191.52C431.364 190.667 431.998 190.013 432.811 189.56C433.638 189.093 434.584 188.86 435.651 188.86C436.691 188.86 437.611 189.087 438.411 189.54C439.211 189.993 439.824 190.62 440.251 191.42C440.691 192.207 440.911 193.1 440.911 194.1ZM439.031 193.72C439.031 193.027 438.878 192.433 438.571 191.94C438.264 191.433 437.844 191.053 437.311 190.8C436.791 190.533 436.211 190.4 435.571 190.4C434.651 190.4 433.864 190.693 433.211 191.28C432.571 191.867 432.204 192.68 432.111 193.72H439.031ZM447.833 188.86C448.78 188.86 449.607 189.067 450.313 189.48C451.033 189.893 451.567 190.413 451.913 191.04V189.04H453.753V200.24C453.753 201.24 453.54 202.127 453.113 202.9C452.687 203.687 452.073 204.3 451.273 204.74C450.487 205.18 449.567 205.4 448.513 205.4C447.073 205.4 445.873 205.06 444.913 204.38C443.953 203.7 443.387 202.773 443.213 201.6H445.013C445.213 202.267 445.627 202.8 446.253 203.2C446.88 203.613 447.633 203.82 448.513 203.82C449.513 203.82 450.327 203.507 450.953 202.88C451.593 202.253 451.913 201.373 451.913 200.24V197.94C451.553 198.58 451.02 199.113 450.313 199.54C449.607 199.967 448.78 200.18 447.833 200.18C446.86 200.18 445.973 199.94 445.173 199.46C444.387 198.98 443.767 198.307 443.313 197.44C442.86 196.573 442.633 195.587 442.633 194.48C442.633 193.36 442.86 192.38 443.313 191.54C443.767 190.687 444.387 190.027 445.173 189.56C445.973 189.093 446.86 188.86 447.833 188.86ZM451.913 194.5C451.913 193.673 451.747 192.953 451.413 192.34C451.08 191.727 450.627 191.26 450.053 190.94C449.493 190.607 448.873 190.44 448.193 190.44C447.513 190.44 446.893 190.6 446.333 190.92C445.773 191.24 445.327 191.707 444.993 192.32C444.66 192.933 444.493 193.653 444.493 194.48C444.493 195.32 444.66 196.053 444.993 196.68C445.327 197.293 445.773 197.767 446.333 198.1C446.893 198.42 447.513 198.58 448.193 198.58C448.873 198.58 449.493 198.42 450.053 198.1C450.627 197.767 451.08 197.293 451.413 196.68C451.747 196.053 451.913 195.327 451.913 194.5ZM456.149 194.48C456.149 193.36 456.376 192.38 456.829 191.54C457.282 190.687 457.902 190.027 458.689 189.56C459.489 189.093 460.376 188.86 461.349 188.86C462.309 188.86 463.142 189.067 463.849 189.48C464.556 189.893 465.082 190.413 465.429 191.04V189.04H467.269V200H465.429V197.96C465.069 198.6 464.529 199.133 463.809 199.56C463.102 199.973 462.276 200.18 461.329 200.18C460.356 200.18 459.476 199.94 458.689 199.46C457.902 198.98 457.282 198.307 456.829 197.44C456.376 196.573 456.149 195.587 456.149 194.48ZM465.429 194.5C465.429 193.673 465.262 192.953 464.929 192.34C464.596 191.727 464.142 191.26 463.569 190.94C463.009 190.607 462.389 190.44 461.709 190.44C461.029 190.44 460.409 190.6 459.849 190.92C459.289 191.24 458.842 191.707 458.509 192.32C458.176 192.933 458.009 193.653 458.009 194.48C458.009 195.32 458.176 196.053 458.509 196.68C458.842 197.293 459.289 197.767 459.849 198.1C460.409 198.42 461.029 198.58 461.709 198.58C462.389 198.58 463.009 198.42 463.569 198.1C464.142 197.767 464.596 197.293 464.929 196.68C465.262 196.053 465.429 195.327 465.429 194.5ZM472.565 190.54V197C472.565 197.533 472.678 197.913 472.905 198.14C473.131 198.353 473.525 198.46 474.085 198.46H475.425V200H473.785C472.771 200 472.011 199.767 471.505 199.3C470.998 198.833 470.745 198.067 470.745 197V190.54H469.325V189.04H470.745V186.28H472.565V189.04H475.425V190.54H472.565ZM478.57 187.26C478.223 187.26 477.93 187.14 477.69 186.9C477.45 186.66 477.33 186.367 477.33 186.02C477.33 185.673 477.45 185.38 477.69 185.14C477.93 184.9 478.223 184.78 478.57 184.78C478.903 184.78 479.183 184.9 479.41 185.14C479.65 185.38 479.77 185.673 479.77 186.02C479.77 186.367 479.65 186.66 479.41 186.9C479.183 187.14 478.903 187.26 478.57 187.26ZM479.45 189.04V200H477.63V189.04H479.45ZM487.332 200.18C486.305 200.18 485.372 199.947 484.532 199.48C483.705 199.013 483.052 198.353 482.572 197.5C482.105 196.633 481.872 195.633 481.872 194.5C481.872 193.38 482.112 192.393 482.592 191.54C483.085 190.673 483.752 190.013 484.592 189.56C485.432 189.093 486.372 188.86 487.412 188.86C488.452 188.86 489.392 189.093 490.232 189.56C491.072 190.013 491.732 190.667 492.212 191.52C492.705 192.373 492.952 193.367 492.952 194.5C492.952 195.633 492.698 196.633 492.192 197.5C491.698 198.353 491.025 199.013 490.172 199.48C489.318 199.947 488.372 200.18 487.332 200.18ZM487.332 198.58C487.985 198.58 488.598 198.427 489.172 198.12C489.745 197.813 490.205 197.353 490.552 196.74C490.912 196.127 491.092 195.38 491.092 194.5C491.092 193.62 490.918 192.873 490.572 192.26C490.225 191.647 489.772 191.193 489.212 190.9C488.652 190.593 488.045 190.44 487.392 190.44C486.725 190.44 486.112 190.593 485.552 190.9C485.005 191.193 484.565 191.647 484.232 192.26C483.898 192.873 483.732 193.62 483.732 194.5C483.732 195.393 483.892 196.147 484.212 196.76C484.545 197.373 484.985 197.833 485.532 198.14C486.078 198.433 486.678 198.58 487.332 198.58ZM500.685 188.84C502.018 188.84 503.098 189.247 503.925 190.06C504.751 190.86 505.165 192.02 505.165 193.54V200H503.365V193.8C503.365 192.707 503.091 191.873 502.545 191.3C501.998 190.713 501.251 190.42 500.305 190.42C499.345 190.42 498.578 190.72 498.005 191.32C497.445 191.92 497.165 192.793 497.165 193.94V200H495.345V189.04H497.165V190.6C497.525 190.04 498.011 189.607 498.625 189.3C499.251 188.993 499.938 188.84 500.685 188.84Z" fill="white"/>
<path d="M50.2391 79.848V81.032H45.3911V84.792H49.3271V85.976H45.3911V91H43.9351V79.848H50.2391ZM53.4536 83.656C53.7096 83.1547 54.0723 82.7653 54.5416 82.488C55.0216 82.2107 55.603 82.072 56.2856 82.072V83.576H55.9016C54.2696 83.576 53.4536 84.4613 53.4536 86.232V91H51.9976V82.232H53.4536V83.656ZM61.7904 91.144C60.969 91.144 60.2224 90.9573 59.5504 90.584C58.889 90.2107 58.3664 89.6827 57.9824 89C57.609 88.3067 57.4224 87.5067 57.4224 86.6C57.4224 85.704 57.6144 84.9147 57.9984 84.232C58.393 83.5387 58.9264 83.0107 59.5984 82.648C60.2704 82.2747 61.0224 82.088 61.8544 82.088C62.6864 82.088 63.4384 82.2747 64.1104 82.648C64.7824 83.0107 65.3104 83.5333 65.6944 84.216C66.089 84.8987 66.2864 85.6933 66.2864 86.6C66.2864 87.5067 66.0837 88.3067 65.6784 89C65.2837 89.6827 64.745 90.2107 64.0624 90.584C63.3797 90.9573 62.6224 91.144 61.7904 91.144ZM61.7904 89.864C62.313 89.864 62.8037 89.7413 63.2624 89.496C63.721 89.2507 64.089 88.8827 64.3664 88.392C64.6544 87.9013 64.7984 87.304 64.7984 86.6C64.7984 85.896 64.6597 85.2987 64.3824 84.808C64.105 84.3173 63.7424 83.9547 63.2944 83.72C62.8464 83.4747 62.361 83.352 61.8384 83.352C61.305 83.352 60.8144 83.4747 60.3664 83.72C59.929 83.9547 59.577 84.3173 59.3104 84.808C59.0437 85.2987 58.9104 85.896 58.9104 86.6C58.9104 87.3147 59.0384 87.9173 59.2944 88.408C59.561 88.8987 59.913 89.2667 60.3504 89.512C60.7877 89.7467 61.2677 89.864 61.7904 89.864ZM72.4728 82.072C73.5394 82.072 74.4034 82.3973 75.0648 83.048C75.7261 83.688 76.0568 84.616 76.0568 85.832V91H74.6168V86.04C74.6168 85.1653 74.3981 84.4987 73.9608 84.04C73.5234 83.5707 72.9261 83.336 72.1688 83.336C71.4008 83.336 70.7874 83.576 70.3288 84.056C69.8808 84.536 69.6568 85.2347 69.6568 86.152V91H68.2008V82.232H69.6568V83.48C69.9448 83.032 70.3341 82.6853 70.8248 82.44C71.3261 82.1947 71.8754 82.072 72.4728 82.072ZM80.2111 83.432V88.6C80.2111 89.0267 80.3018 89.3307 80.4831 89.512C80.6645 89.6827 80.9791 89.768 81.4271 89.768H82.4991V91H81.1871C80.3765 91 79.7685 90.8133 79.3631 90.44C78.9578 90.0667 78.7551 89.4533 78.7551 88.6V83.432H77.6191V82.232H78.7551V80.024H80.2111V82.232H82.4991V83.432H80.2111ZM92.2633 86.28C92.2633 86.5573 92.2473 86.8507 92.2153 87.16H85.2073C85.2606 88.024 85.5539 88.7013 86.0873 89.192C86.6313 89.672 87.2873 89.912 88.0553 89.912C88.6846 89.912 89.2073 89.768 89.6233 89.48C90.0499 89.1813 90.3486 88.7867 90.5193 88.296H92.0873C91.8526 89.1387 91.3833 89.8267 90.6793 90.36C89.9753 90.8827 89.1006 91.144 88.0553 91.144C87.2233 91.144 86.4766 90.9573 85.8153 90.584C85.1646 90.2107 84.6526 89.6827 84.2793 89C83.9059 88.3067 83.7193 87.5067 83.7193 86.6C83.7193 85.6933 83.9006 84.8987 84.2633 84.216C84.6259 83.5333 85.1326 83.0107 85.7833 82.648C86.4446 82.2747 87.2019 82.088 88.0553 82.088C88.8873 82.088 89.6233 82.2693 90.2633 82.632C90.9033 82.9947 91.3939 83.496 91.7353 84.136C92.0873 84.7653 92.2633 85.48 92.2633 86.28ZM90.7593 85.976C90.7593 85.4213 90.6366 84.9467 90.3913 84.552C90.1459 84.1467 89.8099 83.8427 89.3833 83.64C88.9673 83.4267 88.5033 83.32 87.9913 83.32C87.2553 83.32 86.6259 83.5547 86.1033 84.024C85.5913 84.4933 85.2979 85.144 85.2233 85.976H90.7593ZM98.4571 82.072C99.5238 82.072 100.388 82.3973 101.049 83.048C101.71 83.688 102.041 84.616 102.041 85.832V91H100.601V86.04C100.601 85.1653 100.382 84.4987 99.9451 84.04C99.5078 83.5707 98.9105 83.336 98.1531 83.336C97.3851 83.336 96.7718 83.576 96.3131 84.056C95.8651 84.536 95.6411 85.2347 95.6411 86.152V91H94.1851V82.232H95.6411V83.48C95.9291 83.032 96.3185 82.6853 96.8091 82.44C97.3105 82.1947 97.8598 82.072 98.4571 82.072ZM103.876 86.584C103.876 85.688 104.057 84.904 104.42 84.232C104.782 83.5493 105.278 83.0213 105.908 82.648C106.548 82.2747 107.262 82.088 108.052 82.088C108.734 82.088 109.369 82.248 109.956 82.568C110.542 82.8773 110.99 83.288 111.3 83.8V79.16H112.772V91H111.3V89.352C111.012 89.8747 110.585 90.3067 110.02 90.648C109.454 90.9787 108.793 91.144 108.036 91.144C107.257 91.144 106.548 90.952 105.908 90.568C105.278 90.184 104.782 89.6453 104.42 88.952C104.057 88.2587 103.876 87.4693 103.876 86.584ZM111.3 86.6C111.3 85.9387 111.166 85.3627 110.9 84.872C110.633 84.3813 110.27 84.008 109.812 83.752C109.364 83.4853 108.868 83.352 108.324 83.352C107.78 83.352 107.284 83.48 106.836 83.736C106.388 83.992 106.03 84.3653 105.764 84.856C105.497 85.3467 105.364 85.9227 105.364 86.584C105.364 87.256 105.497 87.8427 105.764 88.344C106.03 88.8347 106.388 89.2133 106.836 89.48C107.284 89.736 107.78 89.864 108.324 89.864C108.868 89.864 109.364 89.736 109.812 89.48C110.27 89.2133 110.633 88.8347 110.9 88.344C111.166 87.8427 111.3 87.2613 111.3 86.6Z" fill="#5BA90A"/>
<path d="M94.8785 192.256C95.2838 192.32 95.6518 192.485 95.9825 192.752C96.3238 193.019 96.5905 193.349 96.7825 193.744C96.9852 194.139 97.0865 194.56 97.0865 195.008C97.0865 195.573 96.9425 196.085 96.6545 196.544C96.3665 196.992 95.9452 197.349 95.3905 197.616C94.8465 197.872 94.2012 198 93.4545 198H89.2945V186.848H93.2945C94.0518 186.848 94.6972 186.976 95.2305 187.232C95.7638 187.477 96.1638 187.813 96.4305 188.24C96.6972 188.667 96.8305 189.147 96.8305 189.68C96.8305 190.341 96.6492 190.891 96.2865 191.328C95.9345 191.755 95.4652 192.064 94.8785 192.256ZM90.7505 191.664H93.1985C93.8812 191.664 94.4092 191.504 94.7825 191.184C95.1558 190.864 95.3425 190.421 95.3425 189.856C95.3425 189.291 95.1558 188.848 94.7825 188.528C94.4092 188.208 93.8705 188.048 93.1665 188.048H90.7505V191.664ZM93.3265 196.8C94.0518 196.8 94.6172 196.629 95.0225 196.288C95.4278 195.947 95.6305 195.472 95.6305 194.864C95.6305 194.245 95.4172 193.76 94.9905 193.408C94.5638 193.045 93.9932 192.864 93.2785 192.864H90.7505V196.8H93.3265ZM105.411 186.848V188.032H100.563V191.792H104.499V192.976H100.563V198H99.107V186.848H105.411ZM113.474 186.848V188.032H108.626V191.792H112.562V192.976H108.626V198H107.17V186.848H113.474Z" fill="#5BA90A"/>
<rect x="182" y="327" width="100" height="80" rx="8" fill="#FC4600" fill-opacity="0.82"/>
<path d="M216.706 367.114C216.706 366.162 216.926 365.308 217.364 364.552C217.812 363.796 218.414 363.208 219.17 362.788C219.936 362.359 220.771 362.144 221.676 362.144C222.712 362.144 223.632 362.401 224.434 362.914C225.246 363.418 225.834 364.137 226.198 365.07H224.28C224.028 364.557 223.678 364.174 223.23 363.922C222.782 363.67 222.264 363.544 221.676 363.544C221.032 363.544 220.458 363.689 219.954 363.978C219.45 364.267 219.054 364.683 218.764 365.224C218.484 365.765 218.344 366.395 218.344 367.114C218.344 367.833 218.484 368.463 218.764 369.004C219.054 369.545 219.45 369.965 219.954 370.264C220.458 370.553 221.032 370.698 221.676 370.698C222.264 370.698 222.782 370.572 223.23 370.32C223.678 370.068 224.028 369.685 224.28 369.172H226.198C225.834 370.105 225.246 370.824 224.434 371.328C223.632 371.832 222.712 372.084 221.676 372.084C220.762 372.084 219.926 371.874 219.17 371.454C218.414 371.025 217.812 370.432 217.364 369.676C216.926 368.92 216.706 368.066 216.706 367.114ZM238.315 362.27V372H236.719V365.336L233.751 372H232.645L229.663 365.336V372H228.067V362.27H229.789L233.205 369.9L236.607 362.27H238.315ZM243.618 372.098C242.965 372.098 242.377 371.986 241.854 371.762C241.332 371.529 240.921 371.202 240.622 370.782C240.324 370.362 240.174 369.872 240.174 369.312H241.882C241.92 369.732 242.083 370.077 242.372 370.348C242.671 370.619 243.086 370.754 243.618 370.754C244.169 370.754 244.598 370.623 244.906 370.362C245.214 370.091 245.368 369.746 245.368 369.326C245.368 368.999 245.27 368.733 245.074 368.528C244.888 368.323 244.65 368.164 244.36 368.052C244.08 367.94 243.688 367.819 243.184 367.688C242.55 367.52 242.032 367.352 241.63 367.184C241.238 367.007 240.902 366.736 240.622 366.372C240.342 366.008 240.202 365.523 240.202 364.916C240.202 364.356 240.342 363.866 240.622 363.446C240.902 363.026 241.294 362.704 241.798 362.48C242.302 362.256 242.886 362.144 243.548 362.144C244.491 362.144 245.261 362.382 245.858 362.858C246.465 363.325 246.801 363.969 246.866 364.79H245.102C245.074 364.435 244.906 364.132 244.598 363.88C244.29 363.628 243.884 363.502 243.38 363.502C242.923 363.502 242.55 363.619 242.26 363.852C241.971 364.085 241.826 364.421 241.826 364.86C241.826 365.159 241.915 365.406 242.092 365.602C242.279 365.789 242.512 365.938 242.792 366.05C243.072 366.162 243.455 366.283 243.94 366.414C244.584 366.591 245.107 366.769 245.508 366.946C245.919 367.123 246.264 367.399 246.544 367.772C246.834 368.136 246.978 368.626 246.978 369.242C246.978 369.737 246.843 370.203 246.572 370.642C246.311 371.081 245.924 371.435 245.41 371.706C244.906 371.967 244.309 372.098 243.618 372.098Z" fill="white"/>
<rect x="323" y="327" width="100" height="80" rx="8" fill="#FC4600" fill-opacity="0.82"/>
<path d="M362.747 362.27V372H361.151V362.27H362.747ZM370.708 370.012H366.634L365.934 372H364.268L367.754 362.256H369.602L373.088 372H371.408L370.708 370.012ZM370.26 368.71L368.678 364.188L367.082 368.71H370.26ZM384.852 362.27V372H383.256V365.336L380.288 372H379.182L376.2 365.336V372H374.604V362.27H376.326L379.742 369.9L383.144 362.27H384.852Z" fill="white"/>
<rect x="464" y="327" width="100" height="80" rx="8" fill="#FC4600" fill-opacity="0.82"/>
<path d="M474.092 362.27V368.472C474.092 369.209 474.283 369.765 474.666 370.138C475.058 370.511 475.599 370.698 476.29 370.698C476.99 370.698 477.531 370.511 477.914 370.138C478.306 369.765 478.502 369.209 478.502 368.472V362.27H480.098V368.444C480.098 369.237 479.925 369.909 479.58 370.46C479.235 371.011 478.773 371.421 478.194 371.692C477.615 371.963 476.976 372.098 476.276 372.098C475.576 372.098 474.937 371.963 474.358 371.692C473.789 371.421 473.336 371.011 473 370.46C472.664 369.909 472.496 369.237 472.496 368.444V362.27H474.092ZM484.976 372.126C484.369 372.126 483.823 372.019 483.338 371.804C482.862 371.58 482.484 371.281 482.204 370.908C481.924 370.525 481.775 370.101 481.756 369.634H483.408C483.436 369.961 483.59 370.236 483.87 370.46C484.159 370.675 484.519 370.782 484.948 370.782C485.396 370.782 485.741 370.698 485.984 370.53C486.236 370.353 486.362 370.129 486.362 369.858C486.362 369.569 486.222 369.354 485.942 369.214C485.671 369.074 485.237 368.92 484.64 368.752C484.061 368.593 483.59 368.439 483.226 368.29C482.862 368.141 482.545 367.912 482.274 367.604C482.013 367.296 481.882 366.89 481.882 366.386C481.882 365.975 482.003 365.602 482.246 365.266C482.489 364.921 482.834 364.65 483.282 364.454C483.739 364.258 484.262 364.16 484.85 364.16C485.727 364.16 486.432 364.384 486.964 364.832C487.505 365.271 487.795 365.873 487.832 366.638H486.236C486.208 366.293 486.068 366.017 485.816 365.812C485.564 365.607 485.223 365.504 484.794 365.504C484.374 365.504 484.052 365.583 483.828 365.742C483.604 365.901 483.492 366.111 483.492 366.372C483.492 366.577 483.567 366.75 483.716 366.89C483.865 367.03 484.047 367.142 484.262 367.226C484.477 367.301 484.794 367.399 485.214 367.52C485.774 367.669 486.231 367.823 486.586 367.982C486.95 368.131 487.263 368.355 487.524 368.654C487.785 368.953 487.921 369.349 487.93 369.844C487.93 370.283 487.809 370.675 487.566 371.02C487.323 371.365 486.978 371.636 486.53 371.832C486.091 372.028 485.573 372.126 484.976 372.126ZM496.724 367.954C496.724 368.243 496.706 368.505 496.668 368.738H490.774C490.821 369.354 491.05 369.849 491.46 370.222C491.871 370.595 492.375 370.782 492.972 370.782C493.831 370.782 494.438 370.423 494.792 369.704H496.514C496.281 370.413 495.856 370.997 495.24 371.454C494.634 371.902 493.878 372.126 492.972 372.126C492.235 372.126 491.572 371.963 490.984 371.636C490.406 371.3 489.948 370.833 489.612 370.236C489.286 369.629 489.122 368.929 489.122 368.136C489.122 367.343 489.281 366.647 489.598 366.05C489.925 365.443 490.378 364.977 490.956 364.65C491.544 364.323 492.216 364.16 492.972 364.16C493.7 364.16 494.349 364.319 494.918 364.636C495.488 364.953 495.931 365.401 496.248 365.98C496.566 366.549 496.724 367.207 496.724 367.954ZM495.058 367.45C495.049 366.862 494.839 366.391 494.428 366.036C494.018 365.681 493.509 365.504 492.902 365.504C492.352 365.504 491.88 365.681 491.488 366.036C491.096 366.381 490.863 366.853 490.788 367.45H495.058ZM499.891 365.406C500.124 365.014 500.432 364.711 500.815 364.496C501.207 364.272 501.669 364.16 502.201 364.16V365.812H501.795C501.17 365.812 500.694 365.971 500.367 366.288C500.05 366.605 499.891 367.156 499.891 367.94V372H498.295V364.286H499.891V365.406ZM510.105 372.126C509.498 372.126 508.952 372.019 508.467 371.804C507.991 371.58 507.613 371.281 507.333 370.908C507.053 370.525 506.904 370.101 506.885 369.634H508.537C508.565 369.961 508.719 370.236 508.999 370.46C509.288 370.675 509.648 370.782 510.077 370.782C510.525 370.782 510.87 370.698 511.113 370.53C511.365 370.353 511.491 370.129 511.491 369.858C511.491 369.569 511.351 369.354 511.071 369.214C510.8 369.074 510.366 368.92 509.769 368.752C509.19 368.593 508.719 368.439 508.355 368.29C507.991 368.141 507.674 367.912 507.403 367.604C507.142 367.296 507.011 366.89 507.011 366.386C507.011 365.975 507.132 365.602 507.375 365.266C507.618 364.921 507.963 364.65 508.411 364.454C508.868 364.258 509.391 364.16 509.979 364.16C510.856 364.16 511.561 364.384 512.093 364.832C512.634 365.271 512.924 365.873 512.961 366.638H511.365C511.337 366.293 511.197 366.017 510.945 365.812C510.693 365.607 510.352 365.504 509.923 365.504C509.503 365.504 509.181 365.583 508.957 365.742C508.733 365.901 508.621 366.111 508.621 366.372C508.621 366.577 508.696 366.75 508.845 366.89C508.994 367.03 509.176 367.142 509.391 367.226C509.606 367.301 509.923 367.399 510.343 367.52C510.903 367.669 511.36 367.823 511.715 367.982C512.079 368.131 512.392 368.355 512.653 368.654C512.914 368.953 513.05 369.349 513.059 369.844C513.059 370.283 512.938 370.675 512.695 371.02C512.452 371.365 512.107 371.636 511.659 371.832C511.22 372.028 510.702 372.126 510.105 372.126ZM521.853 367.954C521.853 368.243 521.835 368.505 521.797 368.738H515.903C515.95 369.354 516.179 369.849 516.589 370.222C517 370.595 517.504 370.782 518.101 370.782C518.96 370.782 519.567 370.423 519.921 369.704H521.643C521.41 370.413 520.985 370.997 520.369 371.454C519.763 371.902 519.007 372.126 518.101 372.126C517.364 372.126 516.701 371.963 516.113 371.636C515.535 371.3 515.077 370.833 514.741 370.236C514.415 369.629 514.251 368.929 514.251 368.136C514.251 367.343 514.41 366.647 514.727 366.05C515.054 365.443 515.507 364.977 516.085 364.65C516.673 364.323 517.345 364.16 518.101 364.16C518.829 364.16 519.478 364.319 520.047 364.636C520.617 364.953 521.06 365.401 521.377 365.98C521.695 366.549 521.853 367.207 521.853 367.954ZM520.187 367.45C520.178 366.862 519.968 366.391 519.557 366.036C519.147 365.681 518.638 365.504 518.031 365.504C517.481 365.504 517.009 365.681 516.617 366.036C516.225 366.381 515.992 366.853 515.917 367.45H520.187ZM525.02 365.406C525.253 365.014 525.561 364.711 525.944 364.496C526.336 364.272 526.798 364.16 527.33 364.16V365.812H526.924C526.299 365.812 525.823 365.971 525.496 366.288C525.179 366.605 525.02 367.156 525.02 367.94V372H523.424V364.286H525.02V365.406ZM531.779 370.572L533.963 364.286H535.657L532.717 372H530.813L527.887 364.286H529.595L531.779 370.572ZM537.675 363.264C537.386 363.264 537.143 363.166 536.947 362.97C536.751 362.774 536.653 362.531 536.653 362.242C536.653 361.953 536.751 361.71 536.947 361.514C537.143 361.318 537.386 361.22 537.675 361.22C537.955 361.22 538.193 361.318 538.389 361.514C538.585 361.71 538.683 361.953 538.683 362.242C538.683 362.531 538.585 362.774 538.389 362.97C538.193 363.166 537.955 363.264 537.675 363.264ZM538.459 364.286V372H536.863V364.286H538.459ZM540.023 368.136C540.023 367.343 540.182 366.647 540.499 366.05C540.826 365.443 541.274 364.977 541.843 364.65C542.412 364.323 543.066 364.16 543.803 364.16C544.736 364.16 545.506 364.384 546.113 364.832C546.729 365.271 547.144 365.901 547.359 366.722H545.637C545.497 366.339 545.273 366.041 544.965 365.826C544.657 365.611 544.27 365.504 543.803 365.504C543.15 365.504 542.627 365.737 542.235 366.204C541.852 366.661 541.661 367.305 541.661 368.136C541.661 368.967 541.852 369.615 542.235 370.082C542.627 370.549 543.15 370.782 543.803 370.782C544.727 370.782 545.338 370.376 545.637 369.564H547.359C547.135 370.348 546.715 370.973 546.099 371.44C545.483 371.897 544.718 372.126 543.803 372.126C543.066 372.126 542.412 371.963 541.843 371.636C541.274 371.3 540.826 370.833 540.499 370.236C540.182 369.629 540.023 368.929 540.023 368.136ZM556.019 367.954C556.019 368.243 556.001 368.505 555.963 368.738H550.069C550.116 369.354 550.345 369.849 550.755 370.222C551.166 370.595 551.67 370.782 552.267 370.782C553.126 370.782 553.733 370.423 554.087 369.704H555.809C555.576 370.413 555.151 370.997 554.535 371.454C553.929 371.902 553.173 372.126 552.267 372.126C551.53 372.126 550.867 371.963 550.279 371.636C549.701 371.3 549.243 370.833 548.907 370.236C548.581 369.629 548.417 368.929 548.417 368.136C548.417 367.343 548.576 366.647 548.893 366.05C549.22 365.443 549.673 364.977 550.251 364.65C550.839 364.323 551.511 364.16 552.267 364.16C552.995 364.16 553.644 364.319 554.213 364.636C554.783 364.953 555.226 365.401 555.543 365.98C555.861 366.549 556.019 367.207 556.019 367.954ZM554.353 367.45C554.344 366.862 554.134 366.391 553.723 366.036C553.313 365.681 552.804 365.504 552.197 365.504C551.647 365.504 551.175 365.681 550.783 366.036C550.391 366.381 550.158 366.853 550.083 367.45H554.353Z" fill="white"/>
<rect x="605" y="327" width="100" height="80" rx="8" fill="#FC4600" fill-opacity="0.82"/>
<path d="M632.038 372H630.442L625.64 364.734V372H624.044V362.256H625.64L630.442 369.508V362.256H632.038V372ZM640.571 372.126C639.964 372.126 639.418 372.019 638.933 371.804C638.457 371.58 638.079 371.281 637.799 370.908C637.519 370.525 637.369 370.101 637.351 369.634H639.003C639.031 369.961 639.185 370.236 639.465 370.46C639.754 370.675 640.113 370.782 640.543 370.782C640.991 370.782 641.336 370.698 641.579 370.53C641.831 370.353 641.957 370.129 641.957 369.858C641.957 369.569 641.817 369.354 641.537 369.214C641.266 369.074 640.832 368.92 640.235 368.752C639.656 368.593 639.185 368.439 638.821 368.29C638.457 368.141 638.139 367.912 637.869 367.604C637.607 367.296 637.477 366.89 637.477 366.386C637.477 365.975 637.598 365.602 637.841 365.266C638.083 364.921 638.429 364.65 638.877 364.454C639.334 364.258 639.857 364.16 640.445 364.16C641.322 364.16 642.027 364.384 642.559 364.832C643.1 365.271 643.389 365.873 643.427 366.638H641.831C641.803 366.293 641.663 366.017 641.411 365.812C641.159 365.607 640.818 365.504 640.389 365.504C639.969 365.504 639.647 365.583 639.423 365.742C639.199 365.901 639.087 366.111 639.087 366.372C639.087 366.577 639.161 366.75 639.311 366.89C639.46 367.03 639.642 367.142 639.857 367.226C640.071 367.301 640.389 367.399 640.809 367.52C641.369 367.669 641.826 367.823 642.181 367.982C642.545 368.131 642.857 368.355 643.119 368.654C643.38 368.953 643.515 369.349 643.525 369.844C643.525 370.283 643.403 370.675 643.161 371.02C642.918 371.365 642.573 371.636 642.125 371.832C641.686 372.028 641.168 372.126 640.571 372.126ZM652.319 367.954C652.319 368.243 652.301 368.505 652.263 368.738H646.369C646.416 369.354 646.645 369.849 647.055 370.222C647.466 370.595 647.97 370.782 648.567 370.782C649.426 370.782 650.033 370.423 650.387 369.704H652.109C651.876 370.413 651.451 370.997 650.835 371.454C650.229 371.902 649.473 372.126 648.567 372.126C647.83 372.126 647.167 371.963 646.579 371.636C646.001 371.3 645.543 370.833 645.207 370.236C644.881 369.629 644.717 368.929 644.717 368.136C644.717 367.343 644.876 366.647 645.193 366.05C645.52 365.443 645.973 364.977 646.551 364.65C647.139 364.323 647.811 364.16 648.567 364.16C649.295 364.16 649.944 364.319 650.513 364.636C651.083 364.953 651.526 365.401 651.843 365.98C652.161 366.549 652.319 367.207 652.319 367.954ZM650.653 367.45C650.644 366.862 650.434 366.391 650.023 366.036C649.613 365.681 649.104 365.504 648.497 365.504C647.947 365.504 647.475 365.681 647.083 366.036C646.691 366.381 646.458 366.853 646.383 367.45H650.653ZM655.486 365.406C655.719 365.014 656.027 364.711 656.41 364.496C656.802 364.272 657.264 364.16 657.796 364.16V365.812H657.39C656.765 365.812 656.289 365.971 655.962 366.288C655.645 366.605 655.486 367.156 655.486 367.94V372H653.89V364.286H655.486V365.406ZM662.245 370.572L664.429 364.286H666.123L663.183 372H661.279L658.353 364.286H660.061L662.245 370.572ZM668.141 363.264C667.852 363.264 667.609 363.166 667.413 362.97C667.217 362.774 667.119 362.531 667.119 362.242C667.119 361.953 667.217 361.71 667.413 361.514C667.609 361.318 667.852 361.22 668.141 361.22C668.421 361.22 668.659 361.318 668.855 361.514C669.051 361.71 669.149 361.953 669.149 362.242C669.149 362.531 669.051 362.774 668.855 362.97C668.659 363.166 668.421 363.264 668.141 363.264ZM668.925 364.286V372H667.329V364.286H668.925ZM670.489 368.136C670.489 367.343 670.647 366.647 670.965 366.05C671.291 365.443 671.739 364.977 672.309 364.65C672.878 364.323 673.531 364.16 674.269 364.16C675.202 364.16 675.972 364.384 676.579 364.832C677.195 365.271 677.61 365.901 677.825 366.722H676.103C675.963 366.339 675.739 366.041 675.431 365.826C675.123 365.611 674.735 365.504 674.269 365.504C673.615 365.504 673.093 365.737 672.701 366.204C672.318 366.661 672.127 367.305 672.127 368.136C672.127 368.967 672.318 369.615 672.701 370.082C673.093 370.549 673.615 370.782 674.269 370.782C675.193 370.782 675.804 370.376 676.103 369.564H677.825C677.601 370.348 677.181 370.973 676.565 371.44C675.949 371.897 675.183 372.126 674.269 372.126C673.531 372.126 672.878 371.963 672.309 371.636C671.739 371.3 671.291 370.833 670.965 370.236C670.647 369.629 670.489 368.929 670.489 368.136ZM686.485 367.954C686.485 368.243 686.467 368.505 686.429 368.738H680.535C680.582 369.354 680.811 369.849 681.221 370.222C681.632 370.595 682.136 370.782 682.733 370.782C683.592 370.782 684.199 370.423 684.553 369.704H686.275C686.042 370.413 685.617 370.997 685.001 371.454C684.395 371.902 683.639 372.126 682.733 372.126C681.996 372.126 681.333 371.963 680.745 371.636C680.167 371.3 679.709 370.833 679.373 370.236C679.047 369.629 678.883 368.929 678.883 368.136C678.883 367.343 679.042 366.647 679.359 366.05C679.686 365.443 680.139 364.977 680.717 364.65C681.305 364.323 681.977 364.16 682.733 364.16C683.461 364.16 684.11 364.319 684.679 364.636C685.249 364.953 685.692 365.401 686.009 365.98C686.327 366.549 686.485 367.207 686.485 367.954ZM684.819 367.45C684.81 366.862 684.6 366.391 684.189 366.036C683.779 365.681 683.27 365.504 682.663 365.504C682.113 365.504 681.641 365.681 681.249 366.036C680.857 366.381 680.624 366.853 680.549 367.45H684.819Z" fill="white"/>
<path d="M231.293 326.707C231.683 327.098 232.317 327.098 232.707 326.707L239.071 320.343C239.462 319.953 239.462 319.319 239.071 318.929C238.681 318.538 238.047 318.538 237.657 318.929L232 324.586L226.343 318.929C225.953 318.538 225.319 318.538 224.929 318.929C224.538 319.319 224.538 319.953 224.929 320.343L231.293 326.707ZM232 230L231 230L231 326L232 326L233 326L233 230L232 230Z" fill="#5BA90A"/>
<path d="M372.293 326.707C372.683 327.098 373.317 327.098 373.707 326.707L380.071 320.343C380.462 319.953 380.462 319.319 380.071 318.929C379.681 318.538 379.047 318.538 378.657 318.929L373 324.586L367.343 318.929C366.953 318.538 366.319 318.538 365.929 318.929C365.538 319.319 365.538 319.953 365.929 320.343L372.293 326.707ZM373 230L372 230L372 326L373 326L374 326L374 230L373 230Z" fill="#5BA90A"/>
<path d="M513.293 326.707C513.683 327.098 514.317 327.098 514.707 326.707L521.071 320.343C521.462 319.953 521.462 319.319 521.071 318.929C520.681 318.538 520.047 318.538 519.657 318.929L514 324.586L508.343 318.929C507.953 318.538 507.319 318.538 506.929 318.929C506.538 319.319 506.538 319.953 506.929 320.343L513.293 326.707ZM514 230L513 230L513 326L514 326L515 326L515 230L514 230Z" fill="#5BA90A"/>
<path d="M654.293 326.707C654.683 327.098 655.317 327.098 655.707 326.707L662.071 320.343C662.462 319.953 662.462 319.319 662.071 318.929C661.681 318.538 661.047 318.538 660.657 318.929L655 324.586L649.343 318.929C648.953 318.538 648.319 318.538 647.929 318.929C647.538 319.319 647.538 319.953 647.929 320.343L654.293 326.707ZM655 230L654 230L654 326L655 326L656 326L656 230L655 230Z" fill="#5BA90A"/>
<path d="M442.293 148.707C442.683 149.098 443.317 149.098 443.707 148.707L450.071 142.343C450.462 141.953 450.462 141.319 450.071 140.929C449.681 140.538 449.047 140.538 448.657 140.929L443 146.586L437.343 140.929C436.953 140.538 436.319 140.538 435.929 140.929C435.538 141.319 435.538 141.953 435.929 142.343L442.293 148.707ZM443 123L442 123L442 148L443 148L444 148L444 123L443 123Z" fill="#067146"/>
</svg>
