<svg width="888" height="538" viewBox="0 0 888 538" fill="none" xmlns="http://www.w3.org/2000/svg">
<rect width="888" height="538" rx="4" fill="white"/>
<rect x="131" y="46" width="626" height="77" rx="8" fill="#067146"/>
<path d="M332.124 79.54V84.2H337.204V85.7H332.124V90.5H337.804V92H330.304V78.04H337.804V79.54H332.124ZM348.158 83.9V85.44H340.178V83.9H348.158ZM350.893 86.5C350.893 85.3667 351.12 84.38 351.573 83.54C352.027 82.6867 352.653 82.0267 353.453 81.56C354.267 81.0933 355.193 80.86 356.233 80.86C357.58 80.86 358.687 81.1867 359.553 81.84C360.433 82.4933 361.013 83.4 361.293 84.56H359.333C359.147 83.8933 358.78 83.3667 358.233 82.98C357.7 82.5933 357.033 82.4 356.233 82.4C355.193 82.4 354.353 82.76 353.713 83.48C353.073 84.1867 352.753 85.1933 352.753 86.5C352.753 87.82 353.073 88.84 353.713 89.56C354.353 90.28 355.193 90.64 356.233 90.64C357.033 90.64 357.7 90.4533 358.233 90.08C358.767 89.7067 359.133 89.1733 359.333 88.48H361.293C361 89.6 360.413 90.5 359.533 91.18C358.653 91.8467 357.553 92.18 356.233 92.18C355.193 92.18 354.267 91.9467 353.453 91.48C352.653 91.0133 352.027 90.3533 351.573 89.5C351.12 88.6467 350.893 87.6467 350.893 86.5ZM368.502 92.18C367.475 92.18 366.542 91.9467 365.702 91.48C364.875 91.0133 364.222 90.3533 363.742 89.5C363.275 88.6333 363.042 87.6333 363.042 86.5C363.042 85.38 363.282 84.3933 363.762 83.54C364.255 82.6733 364.922 82.0133 365.762 81.56C366.602 81.0933 367.542 80.86 368.582 80.86C369.622 80.86 370.562 81.0933 371.402 81.56C372.242 82.0133 372.902 82.6667 373.382 83.52C373.875 84.3733 374.122 85.3667 374.122 86.5C374.122 87.6333 373.868 88.6333 373.362 89.5C372.868 90.3533 372.195 91.0133 371.342 91.48C370.488 91.9467 369.542 92.18 368.502 92.18ZM368.502 90.58C369.155 90.58 369.768 90.4267 370.342 90.12C370.915 89.8133 371.375 89.3533 371.722 88.74C372.082 88.1267 372.262 87.38 372.262 86.5C372.262 85.62 372.088 84.8733 371.742 84.26C371.395 83.6467 370.942 83.1933 370.382 82.9C369.822 82.5933 369.215 82.44 368.562 82.44C367.895 82.44 367.282 82.5933 366.722 82.9C366.175 83.1933 365.735 83.6467 365.402 84.26C365.068 84.8733 364.902 85.62 364.902 86.5C364.902 87.3933 365.062 88.1467 365.382 88.76C365.715 89.3733 366.155 89.8333 366.702 90.14C367.248 90.4333 367.848 90.58 368.502 90.58ZM389.695 80.84C390.548 80.84 391.308 81.02 391.975 81.38C392.641 81.7267 393.168 82.2533 393.555 82.96C393.941 83.6667 394.135 84.5267 394.135 85.54V92H392.335V85.8C392.335 84.7067 392.061 83.8733 391.515 83.3C390.981 82.7133 390.255 82.42 389.335 82.42C388.388 82.42 387.635 82.7267 387.075 83.34C386.515 83.94 386.235 84.8133 386.235 85.96V92H384.435V85.8C384.435 84.7067 384.161 83.8733 383.615 83.3C383.081 82.7133 382.355 82.42 381.435 82.42C380.488 82.42 379.735 82.7267 379.175 83.34C378.615 83.94 378.335 84.8133 378.335 85.96V92H376.515V81.04H378.335V82.62C378.695 82.0467 379.175 81.6067 379.775 81.3C380.388 80.9933 381.061 80.84 381.795 80.84C382.715 80.84 383.528 81.0467 384.235 81.46C384.941 81.8733 385.468 82.48 385.815 83.28C386.121 82.5067 386.628 81.9067 387.335 81.48C388.041 81.0533 388.828 80.84 389.695 80.84ZM410.3 80.84C411.153 80.84 411.913 81.02 412.58 81.38C413.247 81.7267 413.773 82.2533 414.16 82.96C414.547 83.6667 414.74 84.5267 414.74 85.54V92H412.94V85.8C412.94 84.7067 412.667 83.8733 412.12 83.3C411.587 82.7133 410.86 82.42 409.94 82.42C408.993 82.42 408.24 82.7267 407.68 83.34C407.12 83.94 406.84 84.8133 406.84 85.96V92H405.04V85.8C405.04 84.7067 404.767 83.8733 404.22 83.3C403.687 82.7133 402.96 82.42 402.04 82.42C401.093 82.42 400.34 82.7267 399.78 83.34C399.22 83.94 398.94 84.8133 398.94 85.96V92H397.12V81.04H398.94V82.62C399.3 82.0467 399.78 81.6067 400.38 81.3C400.993 80.9933 401.667 80.84 402.4 80.84C403.32 80.84 404.133 81.0467 404.84 81.46C405.547 81.8733 406.073 82.48 406.42 83.28C406.727 82.5067 407.233 81.9067 407.94 81.48C408.647 81.0533 409.433 80.84 410.3 80.84ZM427.726 86.1C427.726 86.4467 427.706 86.8133 427.666 87.2H418.906C418.972 88.28 419.339 89.1267 420.006 89.74C420.686 90.34 421.506 90.64 422.466 90.64C423.252 90.64 423.906 90.46 424.426 90.1C424.959 89.7267 425.332 89.2333 425.546 88.62H427.506C427.212 89.6733 426.626 90.5333 425.746 91.2C424.866 91.8533 423.772 92.18 422.466 92.18C421.426 92.18 420.492 91.9467 419.666 91.48C418.852 91.0133 418.212 90.3533 417.746 89.5C417.279 88.6333 417.046 87.6333 417.046 86.5C417.046 85.3667 417.272 84.3733 417.726 83.52C418.179 82.6667 418.812 82.0133 419.626 81.56C420.452 81.0933 421.399 80.86 422.466 80.86C423.506 80.86 424.426 81.0867 425.226 81.54C426.026 81.9933 426.639 82.62 427.066 83.42C427.506 84.2067 427.726 85.1 427.726 86.1ZM425.846 85.72C425.846 85.0267 425.692 84.4333 425.386 83.94C425.079 83.4333 424.659 83.0533 424.126 82.8C423.606 82.5333 423.026 82.4 422.386 82.4C421.466 82.4 420.679 82.6933 420.026 83.28C419.386 83.8667 419.019 84.68 418.926 85.72H425.846ZM431.948 82.82C432.268 82.1933 432.721 81.7067 433.308 81.36C433.908 81.0133 434.635 80.84 435.488 80.84V82.72H435.008C432.968 82.72 431.948 83.8267 431.948 86.04V92H430.128V81.04H431.948V82.82ZM436.909 86.5C436.909 85.3667 437.135 84.38 437.589 83.54C438.042 82.6867 438.669 82.0267 439.469 81.56C440.282 81.0933 441.209 80.86 442.249 80.86C443.595 80.86 444.702 81.1867 445.569 81.84C446.449 82.4933 447.029 83.4 447.309 84.56H445.349C445.162 83.8933 444.795 83.3667 444.249 82.98C443.715 82.5933 443.049 82.4 442.249 82.4C441.209 82.4 440.369 82.76 439.729 83.48C439.089 84.1867 438.769 85.1933 438.769 86.5C438.769 87.82 439.089 88.84 439.729 89.56C440.369 90.28 441.209 90.64 442.249 90.64C443.049 90.64 443.715 90.4533 444.249 90.08C444.782 89.7067 445.149 89.1733 445.349 88.48H447.309C447.015 89.6 446.429 90.5 445.549 91.18C444.669 91.8467 443.569 92.18 442.249 92.18C441.209 92.18 440.282 91.9467 439.469 91.48C438.669 91.0133 438.042 90.3533 437.589 89.5C437.135 88.6467 436.909 87.6467 436.909 86.5ZM459.737 86.1C459.737 86.4467 459.717 86.8133 459.677 87.2H450.917C450.984 88.28 451.351 89.1267 452.017 89.74C452.697 90.34 453.517 90.64 454.477 90.64C455.264 90.64 455.917 90.46 456.437 90.1C456.971 89.7267 457.344 89.2333 457.557 88.62H459.517C459.224 89.6733 458.637 90.5333 457.757 91.2C456.877 91.8533 455.784 92.18 454.477 92.18C453.437 92.18 452.504 91.9467 451.677 91.48C450.864 91.0133 450.224 90.3533 449.757 89.5C449.291 88.6333 449.057 87.6333 449.057 86.5C449.057 85.3667 449.284 84.3733 449.737 83.52C450.191 82.6667 450.824 82.0133 451.637 81.56C452.464 81.0933 453.411 80.86 454.477 80.86C455.517 80.86 456.437 81.0867 457.237 81.54C458.037 81.9933 458.651 82.62 459.077 83.42C459.517 84.2067 459.737 85.1 459.737 86.1ZM457.857 85.72C457.857 85.0267 457.704 84.4333 457.397 83.94C457.091 83.4333 456.671 83.0533 456.137 82.8C455.617 82.5333 455.037 82.4 454.397 82.4C453.477 82.4 452.691 82.6933 452.037 83.28C451.397 83.8667 451.031 84.68 450.937 85.72H457.857ZM471.352 92.18C470.512 92.18 469.758 92.04 469.092 91.76C468.425 91.4667 467.898 91.0667 467.512 90.56C467.125 90.04 466.912 89.4467 466.872 88.78H468.752C468.805 89.3267 469.058 89.7733 469.512 90.12C469.978 90.4667 470.585 90.64 471.332 90.64C472.025 90.64 472.572 90.4867 472.972 90.18C473.372 89.8733 473.572 89.4867 473.572 89.02C473.572 88.54 473.358 88.1867 472.932 87.96C472.505 87.72 471.845 87.4867 470.952 87.26C470.138 87.0467 469.472 86.8333 468.952 86.62C468.445 86.3933 468.005 86.0667 467.632 85.64C467.272 85.2 467.092 84.6267 467.092 83.92C467.092 83.36 467.258 82.8467 467.592 82.38C467.925 81.9133 468.398 81.5467 469.012 81.28C469.625 81 470.325 80.86 471.112 80.86C472.325 80.86 473.305 81.1667 474.052 81.78C474.798 82.3933 475.198 83.2333 475.252 84.3H473.432C473.392 83.7267 473.158 83.2667 472.732 82.92C472.318 82.5733 471.758 82.4 471.052 82.4C470.398 82.4 469.878 82.54 469.492 82.82C469.105 83.1 468.912 83.4667 468.912 83.92C468.912 84.28 469.025 84.58 469.252 84.82C469.492 85.0467 469.785 85.2333 470.132 85.38C470.492 85.5133 470.985 85.6667 471.612 85.84C472.398 86.0533 473.038 86.2667 473.532 86.48C474.025 86.68 474.445 86.9867 474.792 87.4C475.152 87.8133 475.338 88.3533 475.352 89.02C475.352 89.62 475.185 90.16 474.852 90.64C474.518 91.12 474.045 91.5 473.432 91.78C472.832 92.0467 472.138 92.18 471.352 92.18ZM480.141 82.54V89C480.141 89.5333 480.254 89.9133 480.481 90.14C480.708 90.3533 481.101 90.46 481.661 90.46H483.001V92H481.361C480.348 92 479.588 91.7667 479.081 91.3C478.574 90.8333 478.321 90.0667 478.321 89V82.54H476.901V81.04H478.321V78.28H480.141V81.04H483.001V82.54H480.141ZM489.986 92.18C488.959 92.18 488.026 91.9467 487.186 91.48C486.359 91.0133 485.706 90.3533 485.226 89.5C484.759 88.6333 484.526 87.6333 484.526 86.5C484.526 85.38 484.766 84.3933 485.246 83.54C485.739 82.6733 486.406 82.0133 487.246 81.56C488.086 81.0933 489.026 80.86 490.066 80.86C491.106 80.86 492.046 81.0933 492.886 81.56C493.726 82.0133 494.386 82.6667 494.866 83.52C495.359 84.3733 495.606 85.3667 495.606 86.5C495.606 87.6333 495.353 88.6333 494.846 89.5C494.353 90.3533 493.679 91.0133 492.826 91.48C491.973 91.9467 491.026 92.18 489.986 92.18ZM489.986 90.58C490.639 90.58 491.253 90.4267 491.826 90.12C492.399 89.8133 492.859 89.3533 493.206 88.74C493.566 88.1267 493.746 87.38 493.746 86.5C493.746 85.62 493.573 84.8733 493.226 84.26C492.879 83.6467 492.426 83.1933 491.866 82.9C491.306 82.5933 490.699 82.44 490.046 82.44C489.379 82.44 488.766 82.5933 488.206 82.9C487.659 83.1933 487.219 83.6467 486.886 84.26C486.553 84.8733 486.386 85.62 486.386 86.5C486.386 87.3933 486.546 88.1467 486.866 88.76C487.199 89.3733 487.639 89.8333 488.186 90.14C488.733 90.4333 489.333 90.58 489.986 90.58ZM499.819 82.82C500.139 82.1933 500.592 81.7067 501.179 81.36C501.779 81.0133 502.506 80.84 503.359 80.84V82.72H502.879C500.839 82.72 499.819 83.8267 499.819 86.04V92H497.999V81.04H499.819V82.82ZM515.46 86.1C515.46 86.4467 515.44 86.8133 515.4 87.2H506.64C506.707 88.28 507.073 89.1267 507.74 89.74C508.42 90.34 509.24 90.64 510.2 90.64C510.987 90.64 511.64 90.46 512.16 90.1C512.693 89.7267 513.067 89.2333 513.28 88.62H515.24C514.947 89.6733 514.36 90.5333 513.48 91.2C512.6 91.8533 511.507 92.18 510.2 92.18C509.16 92.18 508.227 91.9467 507.4 91.48C506.587 91.0133 505.947 90.3533 505.48 89.5C505.013 88.6333 504.78 87.6333 504.78 86.5C504.78 85.3667 505.007 84.3733 505.46 83.52C505.913 82.6667 506.547 82.0133 507.36 81.56C508.187 81.0933 509.133 80.86 510.2 80.86C511.24 80.86 512.16 81.0867 512.96 81.54C513.76 81.9933 514.373 82.62 514.8 83.42C515.24 84.2067 515.46 85.1 515.46 86.1ZM513.58 85.72C513.58 85.0267 513.427 84.4333 513.12 83.94C512.813 83.4333 512.393 83.0533 511.86 82.8C511.34 82.5333 510.76 82.4 510.12 82.4C509.2 82.4 508.413 82.6933 507.76 83.28C507.12 83.8667 506.753 84.68 506.66 85.72H513.58ZM522.322 82.54H520.022V92H518.202V82.54H516.782V81.04H518.202V80.26C518.202 79.0333 518.516 78.14 519.142 77.58C519.782 77.0067 520.802 76.72 522.202 76.72V78.24C521.402 78.24 520.836 78.4 520.502 78.72C520.182 79.0267 520.022 79.54 520.022 80.26V81.04H522.322V82.54ZM526.264 82.82C526.584 82.1933 527.038 81.7067 527.624 81.36C528.224 81.0133 528.951 80.84 529.804 80.84V82.72H529.324C527.284 82.72 526.264 83.8267 526.264 86.04V92H524.444V81.04H526.264V82.82ZM536.685 92.18C535.659 92.18 534.725 91.9467 533.885 91.48C533.059 91.0133 532.405 90.3533 531.925 89.5C531.459 88.6333 531.225 87.6333 531.225 86.5C531.225 85.38 531.465 84.3933 531.945 83.54C532.439 82.6733 533.105 82.0133 533.945 81.56C534.785 81.0933 535.725 80.86 536.765 80.86C537.805 80.86 538.745 81.0933 539.585 81.56C540.425 82.0133 541.085 82.6667 541.565 83.52C542.059 84.3733 542.305 85.3667 542.305 86.5C542.305 87.6333 542.052 88.6333 541.545 89.5C541.052 90.3533 540.379 91.0133 539.525 91.48C538.672 91.9467 537.725 92.18 536.685 92.18ZM536.685 90.58C537.339 90.58 537.952 90.4267 538.525 90.12C539.099 89.8133 539.559 89.3533 539.905 88.74C540.265 88.1267 540.445 87.38 540.445 86.5C540.445 85.62 540.272 84.8733 539.925 84.26C539.579 83.6467 539.125 83.1933 538.565 82.9C538.005 82.5933 537.399 82.44 536.745 82.44C536.079 82.44 535.465 82.5933 534.905 82.9C534.359 83.1933 533.919 83.6467 533.585 84.26C533.252 84.8733 533.085 85.62 533.085 86.5C533.085 87.3933 533.245 88.1467 533.565 88.76C533.899 89.3733 534.339 89.8333 534.885 90.14C535.432 90.4333 536.032 90.58 536.685 90.58ZM550.038 80.84C551.372 80.84 552.452 81.2467 553.278 82.06C554.105 82.86 554.518 84.02 554.518 85.54V92H552.718V85.8C552.718 84.7067 552.445 83.8733 551.898 83.3C551.352 82.7133 550.605 82.42 549.658 82.42C548.698 82.42 547.932 82.72 547.358 83.32C546.798 83.92 546.518 84.7933 546.518 85.94V92H544.698V81.04H546.518V82.6C546.878 82.04 547.365 81.6067 547.978 81.3C548.605 80.9933 549.292 80.84 550.038 80.84ZM559.711 82.54V89C559.711 89.5333 559.825 89.9133 560.051 90.14C560.278 90.3533 560.671 90.46 561.231 90.46H562.571V92H560.931C559.918 92 559.158 91.7667 558.651 91.3C558.145 90.8333 557.891 90.0667 557.891 89V82.54H556.471V81.04H557.891V78.28H559.711V81.04H562.571V82.54H559.711Z" fill="white"/>
<rect x="131" y="153" width="626" height="165" rx="8" fill="#5BA90A"/>
<path d="M387.654 199H385.834L378.514 187.9V199H376.694V185.04H378.514L385.834 196.12V185.04H387.654V199ZM395.537 199.18C394.51 199.18 393.577 198.947 392.737 198.48C391.91 198.013 391.257 197.353 390.777 196.5C390.31 195.633 390.077 194.633 390.077 193.5C390.077 192.38 390.317 191.393 390.797 190.54C391.29 189.673 391.957 189.013 392.797 188.56C393.637 188.093 394.577 187.86 395.617 187.86C396.657 187.86 397.597 188.093 398.437 188.56C399.277 189.013 399.937 189.667 400.417 190.52C400.91 191.373 401.157 192.367 401.157 193.5C401.157 194.633 400.903 195.633 400.397 196.5C399.903 197.353 399.23 198.013 398.377 198.48C397.523 198.947 396.577 199.18 395.537 199.18ZM395.537 197.58C396.19 197.58 396.803 197.427 397.377 197.12C397.95 196.813 398.41 196.353 398.757 195.74C399.117 195.127 399.297 194.38 399.297 193.5C399.297 192.62 399.123 191.873 398.777 191.26C398.43 190.647 397.977 190.193 397.417 189.9C396.857 189.593 396.25 189.44 395.597 189.44C394.93 189.44 394.317 189.593 393.757 189.9C393.21 190.193 392.77 190.647 392.437 191.26C392.103 191.873 391.937 192.62 391.937 193.5C391.937 194.393 392.097 195.147 392.417 195.76C392.75 196.373 393.19 196.833 393.737 197.14C394.283 197.433 394.883 197.58 395.537 197.58ZM405.37 189.82C405.69 189.193 406.143 188.707 406.73 188.36C407.33 188.013 408.056 187.84 408.91 187.84V189.72H408.43C406.39 189.72 405.37 190.827 405.37 193.04V199H403.55V188.04H405.37V189.82ZM424.191 187.84C425.044 187.84 425.804 188.02 426.471 188.38C427.137 188.727 427.664 189.253 428.051 189.96C428.437 190.667 428.631 191.527 428.631 192.54V199H426.831V192.8C426.831 191.707 426.557 190.873 426.011 190.3C425.477 189.713 424.751 189.42 423.831 189.42C422.884 189.42 422.131 189.727 421.571 190.34C421.011 190.94 420.731 191.813 420.731 192.96V199H418.931V192.8C418.931 191.707 418.657 190.873 418.111 190.3C417.577 189.713 416.851 189.42 415.931 189.42C414.984 189.42 414.231 189.727 413.671 190.34C413.111 190.94 412.831 191.813 412.831 192.96V199H411.011V188.04H412.831V189.62C413.191 189.047 413.671 188.607 414.271 188.3C414.884 187.993 415.557 187.84 416.291 187.84C417.211 187.84 418.024 188.047 418.731 188.46C419.437 188.873 419.964 189.48 420.311 190.28C420.617 189.507 421.124 188.907 421.831 188.48C422.537 188.053 423.324 187.84 424.191 187.84ZM430.936 193.48C430.936 192.36 431.163 191.38 431.616 190.54C432.07 189.687 432.69 189.027 433.476 188.56C434.276 188.093 435.163 187.86 436.136 187.86C437.096 187.86 437.93 188.067 438.636 188.48C439.343 188.893 439.87 189.413 440.216 190.04V188.04H442.056V199H440.216V196.96C439.856 197.6 439.316 198.133 438.596 198.56C437.89 198.973 437.063 199.18 436.116 199.18C435.143 199.18 434.263 198.94 433.476 198.46C432.69 197.98 432.07 197.307 431.616 196.44C431.163 195.573 430.936 194.587 430.936 193.48ZM440.216 193.5C440.216 192.673 440.05 191.953 439.716 191.34C439.383 190.727 438.93 190.26 438.356 189.94C437.796 189.607 437.176 189.44 436.496 189.44C435.816 189.44 435.196 189.6 434.636 189.92C434.076 190.24 433.63 190.707 433.296 191.32C432.963 191.933 432.796 192.653 432.796 193.48C432.796 194.32 432.963 195.053 433.296 195.68C433.63 196.293 434.076 196.767 434.636 197.1C435.196 197.42 435.816 197.58 436.496 197.58C437.176 197.58 437.796 197.42 438.356 197.1C438.93 196.767 439.383 196.293 439.716 195.68C440.05 195.053 440.216 194.327 440.216 193.5ZM446.952 184.2V199H445.132V184.2H446.952ZM450.994 186.26C450.647 186.26 450.354 186.14 450.114 185.9C449.874 185.66 449.754 185.367 449.754 185.02C449.754 184.673 449.874 184.38 450.114 184.14C450.354 183.9 450.647 183.78 450.994 183.78C451.327 183.78 451.607 183.9 451.834 184.14C452.074 184.38 452.194 184.673 452.194 185.02C452.194 185.367 452.074 185.66 451.834 185.9C451.607 186.14 451.327 186.26 450.994 186.26ZM451.874 188.04V199H450.054V188.04H451.874ZM456.336 197.5H461.716V199H454.256V197.5L459.576 189.52H454.296V188.04H461.676V189.52L456.336 197.5ZM463.397 193.48C463.397 192.36 463.624 191.38 464.077 190.54C464.53 189.687 465.15 189.027 465.937 188.56C466.737 188.093 467.624 187.86 468.597 187.86C469.557 187.86 470.39 188.067 471.097 188.48C471.804 188.893 472.33 189.413 472.677 190.04V188.04H474.517V199H472.677V196.96C472.317 197.6 471.777 198.133 471.057 198.56C470.35 198.973 469.524 199.18 468.577 199.18C467.604 199.18 466.724 198.94 465.937 198.46C465.15 197.98 464.53 197.307 464.077 196.44C463.624 195.573 463.397 194.587 463.397 193.48ZM472.677 193.5C472.677 192.673 472.51 191.953 472.177 191.34C471.844 190.727 471.39 190.26 470.817 189.94C470.257 189.607 469.637 189.44 468.957 189.44C468.277 189.44 467.657 189.6 467.097 189.92C466.537 190.24 466.09 190.707 465.757 191.32C465.424 191.933 465.257 192.653 465.257 193.48C465.257 194.32 465.424 195.053 465.757 195.68C466.09 196.293 466.537 196.767 467.097 197.1C467.657 197.42 468.277 197.58 468.957 197.58C469.637 197.58 470.257 197.42 470.817 197.1C471.39 196.767 471.844 196.293 472.177 195.68C472.51 195.053 472.677 194.327 472.677 193.5ZM479.813 189.54V196C479.813 196.533 479.926 196.913 480.153 197.14C480.379 197.353 480.773 197.46 481.333 197.46H482.673V199H481.033C480.019 199 479.259 198.767 478.753 198.3C478.246 197.833 477.993 197.067 477.993 196V189.54H476.573V188.04H477.993V185.28H479.813V188.04H482.673V189.54H479.813ZM485.818 186.26C485.471 186.26 485.178 186.14 484.938 185.9C484.698 185.66 484.578 185.367 484.578 185.02C484.578 184.673 484.698 184.38 484.938 184.14C485.178 183.9 485.471 183.78 485.818 183.78C486.151 183.78 486.431 183.9 486.658 184.14C486.898 184.38 487.018 184.673 487.018 185.02C487.018 185.367 486.898 185.66 486.658 185.9C486.431 186.14 486.151 186.26 485.818 186.26ZM486.698 188.04V199H484.878V188.04H486.698ZM494.58 199.18C493.553 199.18 492.62 198.947 491.78 198.48C490.953 198.013 490.3 197.353 489.82 196.5C489.353 195.633 489.12 194.633 489.12 193.5C489.12 192.38 489.36 191.393 489.84 190.54C490.333 189.673 491 189.013 491.84 188.56C492.68 188.093 493.62 187.86 494.66 187.86C495.7 187.86 496.64 188.093 497.48 188.56C498.32 189.013 498.98 189.667 499.46 190.52C499.953 191.373 500.2 192.367 500.2 193.5C500.2 194.633 499.946 195.633 499.44 196.5C498.946 197.353 498.273 198.013 497.42 198.48C496.566 198.947 495.62 199.18 494.58 199.18ZM494.58 197.58C495.233 197.58 495.846 197.427 496.42 197.12C496.993 196.813 497.453 196.353 497.8 195.74C498.16 195.127 498.34 194.38 498.34 193.5C498.34 192.62 498.166 191.873 497.82 191.26C497.473 190.647 497.02 190.193 496.46 189.9C495.9 189.593 495.293 189.44 494.64 189.44C493.973 189.44 493.36 189.593 492.8 189.9C492.253 190.193 491.813 190.647 491.48 191.26C491.146 191.873 490.98 192.62 490.98 193.5C490.98 194.393 491.14 195.147 491.46 195.76C491.793 196.373 492.233 196.833 492.78 197.14C493.326 197.433 493.926 197.58 494.58 197.58ZM507.933 187.84C509.266 187.84 510.346 188.247 511.173 189.06C511.999 189.86 512.413 191.02 512.413 192.54V199H510.613V192.8C510.613 191.707 510.339 190.873 509.793 190.3C509.246 189.713 508.499 189.42 507.553 189.42C506.593 189.42 505.826 189.72 505.253 190.32C504.693 190.92 504.413 191.793 504.413 192.94V199H502.593V188.04H504.413V189.6C504.773 189.04 505.259 188.607 505.873 188.3C506.499 187.993 507.186 187.84 507.933 187.84Z" fill="white"/>
<path d="M391.182 283.9H385.102L383.982 287H382.062L387.102 273.14H389.202L394.222 287H392.302L391.182 283.9ZM390.662 282.42L388.142 275.38L385.622 282.42H390.662ZM400.939 275.86C401.886 275.86 402.712 276.067 403.419 276.48C404.139 276.893 404.672 277.413 405.019 278.04V276.04H406.859V287.24C406.859 288.24 406.646 289.127 406.219 289.9C405.792 290.687 405.179 291.3 404.379 291.74C403.592 292.18 402.672 292.4 401.619 292.4C400.179 292.4 398.979 292.06 398.019 291.38C397.059 290.7 396.492 289.773 396.319 288.6H398.119C398.319 289.267 398.732 289.8 399.359 290.2C399.986 290.613 400.739 290.82 401.619 290.82C402.619 290.82 403.432 290.507 404.059 289.88C404.699 289.253 405.019 288.373 405.019 287.24V284.94C404.659 285.58 404.126 286.113 403.419 286.54C402.712 286.967 401.886 287.18 400.939 287.18C399.966 287.18 399.079 286.94 398.279 286.46C397.492 285.98 396.872 285.307 396.419 284.44C395.966 283.573 395.739 282.587 395.739 281.48C395.739 280.36 395.966 279.38 396.419 278.54C396.872 277.687 397.492 277.027 398.279 276.56C399.079 276.093 399.966 275.86 400.939 275.86ZM405.019 281.5C405.019 280.673 404.852 279.953 404.519 279.34C404.186 278.727 403.732 278.26 403.159 277.94C402.599 277.607 401.979 277.44 401.299 277.44C400.619 277.44 399.999 277.6 399.439 277.92C398.879 278.24 398.432 278.707 398.099 279.32C397.766 279.933 397.599 280.653 397.599 281.48C397.599 282.32 397.766 283.053 398.099 283.68C398.432 284.293 398.879 284.767 399.439 285.1C399.999 285.42 400.619 285.58 401.299 285.58C401.979 285.58 402.599 285.42 403.159 285.1C403.732 284.767 404.186 284.293 404.519 283.68C404.852 283.053 405.019 282.327 405.019 281.5ZM414.455 275.86C415.401 275.86 416.228 276.067 416.935 276.48C417.655 276.893 418.188 277.413 418.535 278.04V276.04H420.375V287.24C420.375 288.24 420.161 289.127 419.735 289.9C419.308 290.687 418.695 291.3 417.895 291.74C417.108 292.18 416.188 292.4 415.135 292.4C413.695 292.4 412.495 292.06 411.535 291.38C410.575 290.7 410.008 289.773 409.835 288.6H411.635C411.835 289.267 412.248 289.8 412.875 290.2C413.501 290.613 414.255 290.82 415.135 290.82C416.135 290.82 416.948 290.507 417.575 289.88C418.215 289.253 418.535 288.373 418.535 287.24V284.94C418.175 285.58 417.641 286.113 416.935 286.54C416.228 286.967 415.401 287.18 414.455 287.18C413.481 287.18 412.595 286.94 411.795 286.46C411.008 285.98 410.388 285.307 409.935 284.44C409.481 283.573 409.255 282.587 409.255 281.48C409.255 280.36 409.481 279.38 409.935 278.54C410.388 277.687 411.008 277.027 411.795 276.56C412.595 276.093 413.481 275.86 414.455 275.86ZM418.535 281.5C418.535 280.673 418.368 279.953 418.035 279.34C417.701 278.727 417.248 278.26 416.675 277.94C416.115 277.607 415.495 277.44 414.815 277.44C414.135 277.44 413.515 277.6 412.955 277.92C412.395 278.24 411.948 278.707 411.615 279.32C411.281 279.933 411.115 280.653 411.115 281.48C411.115 282.32 411.281 283.053 411.615 283.68C411.948 284.293 412.395 284.767 412.955 285.1C413.515 285.42 414.135 285.58 414.815 285.58C415.495 285.58 416.115 285.42 416.675 285.1C417.248 284.767 417.701 284.293 418.035 283.68C418.368 283.053 418.535 282.327 418.535 281.5ZM425.27 277.82C425.59 277.193 426.043 276.707 426.63 276.36C427.23 276.013 427.957 275.84 428.81 275.84V277.72H428.33C426.29 277.72 425.27 278.827 425.27 281.04V287H423.45V276.04H425.27V277.82ZM440.911 281.1C440.911 281.447 440.891 281.813 440.851 282.2H432.091C432.158 283.28 432.524 284.127 433.191 284.74C433.871 285.34 434.691 285.64 435.651 285.64C436.438 285.64 437.091 285.46 437.611 285.1C438.144 284.727 438.518 284.233 438.731 283.62H440.691C440.398 284.673 439.811 285.533 438.931 286.2C438.051 286.853 436.958 287.18 435.651 287.18C434.611 287.18 433.678 286.947 432.851 286.48C432.038 286.013 431.398 285.353 430.931 284.5C430.464 283.633 430.231 282.633 430.231 281.5C430.231 280.367 430.458 279.373 430.911 278.52C431.364 277.667 431.998 277.013 432.811 276.56C433.638 276.093 434.584 275.86 435.651 275.86C436.691 275.86 437.611 276.087 438.411 276.54C439.211 276.993 439.824 277.62 440.251 278.42C440.691 279.207 440.911 280.1 440.911 281.1ZM439.031 280.72C439.031 280.027 438.878 279.433 438.571 278.94C438.264 278.433 437.844 278.053 437.311 277.8C436.791 277.533 436.211 277.4 435.571 277.4C434.651 277.4 433.864 277.693 433.211 278.28C432.571 278.867 432.204 279.68 432.111 280.72H439.031ZM447.833 275.86C448.78 275.86 449.607 276.067 450.313 276.48C451.033 276.893 451.567 277.413 451.913 278.04V276.04H453.753V287.24C453.753 288.24 453.54 289.127 453.113 289.9C452.687 290.687 452.073 291.3 451.273 291.74C450.487 292.18 449.567 292.4 448.513 292.4C447.073 292.4 445.873 292.06 444.913 291.38C443.953 290.7 443.387 289.773 443.213 288.6H445.013C445.213 289.267 445.627 289.8 446.253 290.2C446.88 290.613 447.633 290.82 448.513 290.82C449.513 290.82 450.327 290.507 450.953 289.88C451.593 289.253 451.913 288.373 451.913 287.24V284.94C451.553 285.58 451.02 286.113 450.313 286.54C449.607 286.967 448.78 287.18 447.833 287.18C446.86 287.18 445.973 286.94 445.173 286.46C444.387 285.98 443.767 285.307 443.313 284.44C442.86 283.573 442.633 282.587 442.633 281.48C442.633 280.36 442.86 279.38 443.313 278.54C443.767 277.687 444.387 277.027 445.173 276.56C445.973 276.093 446.86 275.86 447.833 275.86ZM451.913 281.5C451.913 280.673 451.747 279.953 451.413 279.34C451.08 278.727 450.627 278.26 450.053 277.94C449.493 277.607 448.873 277.44 448.193 277.44C447.513 277.44 446.893 277.6 446.333 277.92C445.773 278.24 445.327 278.707 444.993 279.32C444.66 279.933 444.493 280.653 444.493 281.48C444.493 282.32 444.66 283.053 444.993 283.68C445.327 284.293 445.773 284.767 446.333 285.1C446.893 285.42 447.513 285.58 448.193 285.58C448.873 285.58 449.493 285.42 450.053 285.1C450.627 284.767 451.08 284.293 451.413 283.68C451.747 283.053 451.913 282.327 451.913 281.5ZM456.149 281.48C456.149 280.36 456.376 279.38 456.829 278.54C457.282 277.687 457.902 277.027 458.689 276.56C459.489 276.093 460.376 275.86 461.349 275.86C462.309 275.86 463.142 276.067 463.849 276.48C464.556 276.893 465.082 277.413 465.429 278.04V276.04H467.269V287H465.429V284.96C465.069 285.6 464.529 286.133 463.809 286.56C463.102 286.973 462.276 287.18 461.329 287.18C460.356 287.18 459.476 286.94 458.689 286.46C457.902 285.98 457.282 285.307 456.829 284.44C456.376 283.573 456.149 282.587 456.149 281.48ZM465.429 281.5C465.429 280.673 465.262 279.953 464.929 279.34C464.596 278.727 464.142 278.26 463.569 277.94C463.009 277.607 462.389 277.44 461.709 277.44C461.029 277.44 460.409 277.6 459.849 277.92C459.289 278.24 458.842 278.707 458.509 279.32C458.176 279.933 458.009 280.653 458.009 281.48C458.009 282.32 458.176 283.053 458.509 283.68C458.842 284.293 459.289 284.767 459.849 285.1C460.409 285.42 461.029 285.58 461.709 285.58C462.389 285.58 463.009 285.42 463.569 285.1C464.142 284.767 464.596 284.293 464.929 283.68C465.262 283.053 465.429 282.327 465.429 281.5ZM472.565 277.54V284C472.565 284.533 472.678 284.913 472.905 285.14C473.131 285.353 473.525 285.46 474.085 285.46H475.425V287H473.785C472.771 287 472.011 286.767 471.505 286.3C470.998 285.833 470.745 285.067 470.745 284V277.54H469.325V276.04H470.745V273.28H472.565V276.04H475.425V277.54H472.565ZM478.57 274.26C478.223 274.26 477.93 274.14 477.69 273.9C477.45 273.66 477.33 273.367 477.33 273.02C477.33 272.673 477.45 272.38 477.69 272.14C477.93 271.9 478.223 271.78 478.57 271.78C478.903 271.78 479.183 271.9 479.41 272.14C479.65 272.38 479.77 272.673 479.77 273.02C479.77 273.367 479.65 273.66 479.41 273.9C479.183 274.14 478.903 274.26 478.57 274.26ZM479.45 276.04V287H477.63V276.04H479.45ZM487.332 287.18C486.305 287.18 485.372 286.947 484.532 286.48C483.705 286.013 483.052 285.353 482.572 284.5C482.105 283.633 481.872 282.633 481.872 281.5C481.872 280.38 482.112 279.393 482.592 278.54C483.085 277.673 483.752 277.013 484.592 276.56C485.432 276.093 486.372 275.86 487.412 275.86C488.452 275.86 489.392 276.093 490.232 276.56C491.072 277.013 491.732 277.667 492.212 278.52C492.705 279.373 492.952 280.367 492.952 281.5C492.952 282.633 492.698 283.633 492.192 284.5C491.698 285.353 491.025 286.013 490.172 286.48C489.318 286.947 488.372 287.18 487.332 287.18ZM487.332 285.58C487.985 285.58 488.598 285.427 489.172 285.12C489.745 284.813 490.205 284.353 490.552 283.74C490.912 283.127 491.092 282.38 491.092 281.5C491.092 280.62 490.918 279.873 490.572 279.26C490.225 278.647 489.772 278.193 489.212 277.9C488.652 277.593 488.045 277.44 487.392 277.44C486.725 277.44 486.112 277.593 485.552 277.9C485.005 278.193 484.565 278.647 484.232 279.26C483.898 279.873 483.732 280.62 483.732 281.5C483.732 282.393 483.892 283.147 484.212 283.76C484.545 284.373 484.985 284.833 485.532 285.14C486.078 285.433 486.678 285.58 487.332 285.58ZM500.685 275.84C502.018 275.84 503.098 276.247 503.925 277.06C504.751 277.86 505.165 279.02 505.165 280.54V287H503.365V280.8C503.365 279.707 503.091 278.873 502.545 278.3C501.998 277.713 501.251 277.42 500.305 277.42C499.345 277.42 498.578 277.72 498.005 278.32C497.445 278.92 497.165 279.793 497.165 280.94V287H495.345V276.04H497.165V277.6C497.525 277.04 498.011 276.607 498.625 276.3C499.251 275.993 499.938 275.84 500.685 275.84Z" fill="white"/>
<line x1="131" y1="235.5" x2="757" y2="235.5" stroke="white"/>
<rect x="182" y="415" width="100" height="80" rx="8" fill="#FC4600" fill-opacity="0.82"/>
<path d="M216.706 455.114C216.706 454.162 216.926 453.308 217.364 452.552C217.812 451.796 218.414 451.208 219.17 450.788C219.936 450.359 220.771 450.144 221.676 450.144C222.712 450.144 223.632 450.401 224.434 450.914C225.246 451.418 225.834 452.137 226.198 453.07H224.28C224.028 452.557 223.678 452.174 223.23 451.922C222.782 451.67 222.264 451.544 221.676 451.544C221.032 451.544 220.458 451.689 219.954 451.978C219.45 452.267 219.054 452.683 218.764 453.224C218.484 453.765 218.344 454.395 218.344 455.114C218.344 455.833 218.484 456.463 218.764 457.004C219.054 457.545 219.45 457.965 219.954 458.264C220.458 458.553 221.032 458.698 221.676 458.698C222.264 458.698 222.782 458.572 223.23 458.32C223.678 458.068 224.028 457.685 224.28 457.172H226.198C225.834 458.105 225.246 458.824 224.434 459.328C223.632 459.832 222.712 460.084 221.676 460.084C220.762 460.084 219.926 459.874 219.17 459.454C218.414 459.025 217.812 458.432 217.364 457.676C216.926 456.92 216.706 456.066 216.706 455.114ZM238.315 450.27V460H236.719V453.336L233.751 460H232.645L229.663 453.336V460H228.067V450.27H229.789L233.205 457.9L236.607 450.27H238.315ZM243.618 460.098C242.965 460.098 242.377 459.986 241.854 459.762C241.332 459.529 240.921 459.202 240.622 458.782C240.324 458.362 240.174 457.872 240.174 457.312H241.882C241.92 457.732 242.083 458.077 242.372 458.348C242.671 458.619 243.086 458.754 243.618 458.754C244.169 458.754 244.598 458.623 244.906 458.362C245.214 458.091 245.368 457.746 245.368 457.326C245.368 456.999 245.27 456.733 245.074 456.528C244.888 456.323 244.65 456.164 244.36 456.052C244.08 455.94 243.688 455.819 243.184 455.688C242.55 455.52 242.032 455.352 241.63 455.184C241.238 455.007 240.902 454.736 240.622 454.372C240.342 454.008 240.202 453.523 240.202 452.916C240.202 452.356 240.342 451.866 240.622 451.446C240.902 451.026 241.294 450.704 241.798 450.48C242.302 450.256 242.886 450.144 243.548 450.144C244.491 450.144 245.261 450.382 245.858 450.858C246.465 451.325 246.801 451.969 246.866 452.79H245.102C245.074 452.435 244.906 452.132 244.598 451.88C244.29 451.628 243.884 451.502 243.38 451.502C242.923 451.502 242.55 451.619 242.26 451.852C241.971 452.085 241.826 452.421 241.826 452.86C241.826 453.159 241.915 453.406 242.092 453.602C242.279 453.789 242.512 453.938 242.792 454.05C243.072 454.162 243.455 454.283 243.94 454.414C244.584 454.591 245.107 454.769 245.508 454.946C245.919 455.123 246.264 455.399 246.544 455.772C246.834 456.136 246.978 456.626 246.978 457.242C246.978 457.737 246.843 458.203 246.572 458.642C246.311 459.081 245.924 459.435 245.41 459.706C244.906 459.967 244.309 460.098 243.618 460.098Z" fill="white"/>
<rect x="323" y="415" width="100" height="80" rx="8" fill="#FC4600" fill-opacity="0.82"/>
<path d="M365.848 451.098C364.943 451.098 364.108 450.888 363.342 450.468C362.586 450.039 361.984 449.446 361.536 448.69C361.098 447.925 360.878 447.066 360.878 446.114C360.878 445.162 361.098 444.308 361.536 443.552C361.984 442.796 362.586 442.208 363.342 441.788C364.108 441.359 364.943 441.144 365.848 441.144C366.763 441.144 367.598 441.359 368.354 441.788C369.12 442.208 369.722 442.796 370.16 443.552C370.599 444.308 370.818 445.162 370.818 446.114C370.818 447.066 370.599 447.925 370.16 448.69C369.722 449.446 369.12 450.039 368.354 450.468C367.598 450.888 366.763 451.098 365.848 451.098ZM365.848 449.712C366.492 449.712 367.066 449.567 367.57 449.278C368.074 448.979 368.466 448.559 368.746 448.018C369.036 447.467 369.18 446.833 369.18 446.114C369.18 445.395 369.036 444.765 368.746 444.224C368.466 443.683 368.074 443.267 367.57 442.978C367.066 442.689 366.492 442.544 365.848 442.544C365.204 442.544 364.63 442.689 364.126 442.978C363.622 443.267 363.226 443.683 362.936 444.224C362.656 444.765 362.516 445.395 362.516 446.114C362.516 446.833 362.656 447.467 362.936 448.018C363.226 448.559 363.622 448.979 364.126 449.278C364.63 449.567 365.204 449.712 365.848 449.712ZM373.985 444.406C374.218 444.014 374.526 443.711 374.909 443.496C375.301 443.272 375.763 443.16 376.295 443.16V444.812H375.889C375.264 444.812 374.788 444.971 374.461 445.288C374.144 445.605 373.985 446.156 373.985 446.94V451H372.389V443.286H373.985V444.406ZM381.108 451.126C380.38 451.126 379.722 450.963 379.134 450.636C378.546 450.3 378.084 449.833 377.748 449.236C377.412 448.629 377.244 447.929 377.244 447.136C377.244 446.352 377.417 445.657 377.762 445.05C378.107 444.443 378.579 443.977 379.176 443.65C379.773 443.323 380.441 443.16 381.178 443.16C381.915 443.16 382.583 443.323 383.18 443.65C383.777 443.977 384.249 444.443 384.594 445.05C384.939 445.657 385.112 446.352 385.112 447.136C385.112 447.92 384.935 448.615 384.58 449.222C384.225 449.829 383.74 450.3 383.124 450.636C382.517 450.963 381.845 451.126 381.108 451.126ZM381.108 449.74C381.519 449.74 381.901 449.642 382.256 449.446C382.62 449.25 382.914 448.956 383.138 448.564C383.362 448.172 383.474 447.696 383.474 447.136C383.474 446.576 383.367 446.105 383.152 445.722C382.937 445.33 382.653 445.036 382.298 444.84C381.943 444.644 381.561 444.546 381.15 444.546C380.739 444.546 380.357 444.644 380.002 444.84C379.657 445.036 379.381 445.33 379.176 445.722C378.971 446.105 378.868 446.576 378.868 447.136C378.868 447.967 379.078 448.611 379.498 449.068C379.927 449.516 380.464 449.74 381.108 449.74ZM333.569 464.114C333.569 463.162 333.788 462.308 334.227 461.552C334.675 460.796 335.277 460.208 336.033 459.788C336.798 459.359 337.633 459.144 338.539 459.144C339.575 459.144 340.494 459.401 341.297 459.914C342.109 460.418 342.697 461.137 343.061 462.07H341.143C340.891 461.557 340.541 461.174 340.093 460.922C339.645 460.67 339.127 460.544 338.539 460.544C337.895 460.544 337.321 460.689 336.817 460.978C336.313 461.267 335.916 461.683 335.627 462.224C335.347 462.765 335.207 463.395 335.207 464.114C335.207 464.833 335.347 465.463 335.627 466.004C335.916 466.545 336.313 466.965 336.817 467.264C337.321 467.553 337.895 467.698 338.539 467.698C339.127 467.698 339.645 467.572 340.093 467.32C340.541 467.068 340.891 466.685 341.143 466.172H343.061C342.697 467.105 342.109 467.824 341.297 468.328C340.494 468.832 339.575 469.084 338.539 469.084C337.624 469.084 336.789 468.874 336.033 468.454C335.277 468.025 334.675 467.432 334.227 466.676C333.788 465.92 333.569 465.066 333.569 464.114ZM348.275 469.126C347.547 469.126 346.889 468.963 346.301 468.636C345.713 468.3 345.251 467.833 344.915 467.236C344.579 466.629 344.411 465.929 344.411 465.136C344.411 464.352 344.584 463.657 344.929 463.05C345.274 462.443 345.746 461.977 346.343 461.65C346.94 461.323 347.608 461.16 348.345 461.16C349.082 461.16 349.75 461.323 350.347 461.65C350.944 461.977 351.416 462.443 351.761 463.05C352.106 463.657 352.279 464.352 352.279 465.136C352.279 465.92 352.102 466.615 351.747 467.222C351.392 467.829 350.907 468.3 350.291 468.636C349.684 468.963 349.012 469.126 348.275 469.126ZM348.275 467.74C348.686 467.74 349.068 467.642 349.423 467.446C349.787 467.25 350.081 466.956 350.305 466.564C350.529 466.172 350.641 465.696 350.641 465.136C350.641 464.576 350.534 464.105 350.319 463.722C350.104 463.33 349.82 463.036 349.465 462.84C349.11 462.644 348.728 462.546 348.317 462.546C347.906 462.546 347.524 462.644 347.169 462.84C346.824 463.036 346.548 463.33 346.343 463.722C346.138 464.105 346.035 464.576 346.035 465.136C346.035 465.967 346.245 466.611 346.665 467.068C347.094 467.516 347.631 467.74 348.275 467.74ZM363.195 461.16C363.801 461.16 364.343 461.286 364.819 461.538C365.304 461.79 365.682 462.163 365.953 462.658C366.233 463.153 366.373 463.75 366.373 464.45V469H364.791V464.688C364.791 463.997 364.618 463.47 364.273 463.106C363.927 462.733 363.456 462.546 362.859 462.546C362.261 462.546 361.785 462.733 361.431 463.106C361.085 463.47 360.913 463.997 360.913 464.688V469H359.331V464.688C359.331 463.997 359.158 463.47 358.813 463.106C358.467 462.733 357.996 462.546 357.399 462.546C356.801 462.546 356.325 462.733 355.971 463.106C355.625 463.47 355.453 463.997 355.453 464.688V469H353.857V461.286H355.453V462.168C355.714 461.851 356.045 461.603 356.447 461.426C356.848 461.249 357.277 461.16 357.735 461.16C358.351 461.16 358.901 461.291 359.387 461.552C359.872 461.813 360.245 462.191 360.507 462.686C360.74 462.219 361.104 461.851 361.599 461.58C362.093 461.3 362.625 461.16 363.195 461.16ZM377.742 461.16C378.348 461.16 378.89 461.286 379.366 461.538C379.851 461.79 380.229 462.163 380.5 462.658C380.78 463.153 380.92 463.75 380.92 464.45V469H379.338V464.688C379.338 463.997 379.165 463.47 378.82 463.106C378.474 462.733 378.003 462.546 377.406 462.546C376.808 462.546 376.332 462.733 375.978 463.106C375.632 463.47 375.46 463.997 375.46 464.688V469H373.878V464.688C373.878 463.997 373.705 463.47 373.36 463.106C373.014 462.733 372.543 462.546 371.946 462.546C371.348 462.546 370.872 462.733 370.518 463.106C370.172 463.47 370 463.997 370 464.688V469H368.404V461.286H370V462.168C370.261 461.851 370.592 461.603 370.994 461.426C371.395 461.249 371.824 461.16 372.282 461.16C372.898 461.16 373.448 461.291 373.934 461.552C374.419 461.813 374.792 462.191 375.054 462.686C375.287 462.219 375.651 461.851 376.146 461.58C376.64 461.3 377.172 461.16 377.742 461.16ZM390.02 464.954C390.02 465.243 390.002 465.505 389.964 465.738H384.07C384.117 466.354 384.346 466.849 384.756 467.222C385.167 467.595 385.671 467.782 386.268 467.782C387.127 467.782 387.734 467.423 388.088 466.704H389.81C389.577 467.413 389.152 467.997 388.536 468.454C387.93 468.902 387.174 469.126 386.268 469.126C385.531 469.126 384.868 468.963 384.28 468.636C383.702 468.3 383.244 467.833 382.908 467.236C382.582 466.629 382.418 465.929 382.418 465.136C382.418 464.343 382.577 463.647 382.894 463.05C383.221 462.443 383.674 461.977 384.252 461.65C384.84 461.323 385.512 461.16 386.268 461.16C386.996 461.16 387.645 461.319 388.214 461.636C388.784 461.953 389.227 462.401 389.544 462.98C389.862 463.549 390.02 464.207 390.02 464.954ZM388.354 464.45C388.345 463.862 388.135 463.391 387.724 463.036C387.314 462.681 386.805 462.504 386.198 462.504C385.648 462.504 385.176 462.681 384.784 463.036C384.392 463.381 384.159 463.853 384.084 464.45H388.354ZM393.187 462.406C393.42 462.014 393.728 461.711 394.111 461.496C394.503 461.272 394.965 461.16 395.497 461.16V462.812H395.091C394.466 462.812 393.99 462.971 393.663 463.288C393.346 463.605 393.187 464.156 393.187 464.94V469H391.591V461.286H393.187V462.406ZM396.432 465.136C396.432 464.343 396.591 463.647 396.908 463.05C397.235 462.443 397.683 461.977 398.252 461.65C398.821 461.323 399.475 461.16 400.212 461.16C401.145 461.16 401.915 461.384 402.522 461.832C403.138 462.271 403.553 462.901 403.768 463.722H402.046C401.906 463.339 401.682 463.041 401.374 462.826C401.066 462.611 400.679 462.504 400.212 462.504C399.559 462.504 399.036 462.737 398.644 463.204C398.261 463.661 398.07 464.305 398.07 465.136C398.07 465.967 398.261 466.615 398.644 467.082C399.036 467.549 399.559 467.782 400.212 467.782C401.136 467.782 401.747 467.376 402.046 466.564H403.768C403.544 467.348 403.124 467.973 402.508 468.44C401.892 468.897 401.127 469.126 400.212 469.126C399.475 469.126 398.821 468.963 398.252 468.636C397.683 468.3 397.235 467.833 396.908 467.236C396.591 466.629 396.432 465.929 396.432 465.136ZM412.429 464.954C412.429 465.243 412.41 465.505 412.373 465.738H406.479C406.525 466.354 406.754 466.849 407.165 467.222C407.575 467.595 408.079 467.782 408.677 467.782C409.535 467.782 410.142 467.423 410.497 466.704H412.219C411.985 467.413 411.561 467.997 410.945 468.454C410.338 468.902 409.582 469.126 408.677 469.126C407.939 469.126 407.277 468.963 406.689 468.636C406.11 468.3 405.653 467.833 405.317 467.236C404.99 466.629 404.827 465.929 404.827 465.136C404.827 464.343 404.985 463.647 405.303 463.05C405.629 462.443 406.082 461.977 406.661 461.65C407.249 461.323 407.921 461.16 408.677 461.16C409.405 461.16 410.053 461.319 410.623 461.636C411.192 461.953 411.635 462.401 411.953 462.98C412.27 463.549 412.429 464.207 412.429 464.954ZM410.763 464.45C410.753 463.862 410.543 463.391 410.133 463.036C409.722 462.681 409.213 462.504 408.607 462.504C408.056 462.504 407.585 462.681 407.193 463.036C406.801 463.381 406.567 463.853 406.493 464.45H410.763Z" fill="white"/>
<rect x="464" y="415" width="100" height="80" rx="8" fill="#FC4600" fill-opacity="0.82"/>
<path d="M493.537 460.098C492.884 460.098 492.296 459.986 491.773 459.762C491.251 459.529 490.84 459.202 490.541 458.782C490.243 458.362 490.093 457.872 490.093 457.312H491.801C491.839 457.732 492.002 458.077 492.291 458.348C492.59 458.619 493.005 458.754 493.537 458.754C494.088 458.754 494.517 458.623 494.825 458.362C495.133 458.091 495.287 457.746 495.287 457.326C495.287 456.999 495.189 456.733 494.993 456.528C494.807 456.323 494.569 456.164 494.279 456.052C493.999 455.94 493.607 455.819 493.103 455.688C492.469 455.52 491.951 455.352 491.549 455.184C491.157 455.007 490.821 454.736 490.541 454.372C490.261 454.008 490.121 453.523 490.121 452.916C490.121 452.356 490.261 451.866 490.541 451.446C490.821 451.026 491.213 450.704 491.717 450.48C492.221 450.256 492.805 450.144 493.467 450.144C494.41 450.144 495.18 450.382 495.777 450.858C496.384 451.325 496.72 451.969 496.785 452.79H495.021C494.993 452.435 494.825 452.132 494.517 451.88C494.209 451.628 493.803 451.502 493.299 451.502C492.842 451.502 492.469 451.619 492.179 451.852C491.89 452.085 491.745 452.421 491.745 452.86C491.745 453.159 491.834 453.406 492.011 453.602C492.198 453.789 492.431 453.938 492.711 454.05C492.991 454.162 493.374 454.283 493.859 454.414C494.503 454.591 495.026 454.769 495.427 454.946C495.838 455.123 496.183 455.399 496.463 455.772C496.753 456.136 496.897 456.626 496.897 457.242C496.897 457.737 496.762 458.203 496.491 458.642C496.23 459.081 495.843 459.435 495.329 459.706C494.825 459.967 494.228 460.098 493.537 460.098ZM505.85 455.954C505.85 456.243 505.832 456.505 505.794 456.738H499.9C499.947 457.354 500.176 457.849 500.586 458.222C500.997 458.595 501.501 458.782 502.098 458.782C502.957 458.782 503.564 458.423 503.918 457.704H505.64C505.407 458.413 504.982 458.997 504.366 459.454C503.76 459.902 503.004 460.126 502.098 460.126C501.361 460.126 500.698 459.963 500.11 459.636C499.532 459.3 499.074 458.833 498.738 458.236C498.412 457.629 498.248 456.929 498.248 456.136C498.248 455.343 498.407 454.647 498.724 454.05C499.051 453.443 499.504 452.977 500.082 452.65C500.67 452.323 501.342 452.16 502.098 452.16C502.826 452.16 503.475 452.319 504.044 452.636C504.614 452.953 505.057 453.401 505.374 453.98C505.692 454.549 505.85 455.207 505.85 455.954ZM504.184 455.45C504.175 454.862 503.965 454.391 503.554 454.036C503.144 453.681 502.635 453.504 502.028 453.504C501.478 453.504 501.006 453.681 500.614 454.036C500.222 454.381 499.989 454.853 499.914 455.45H504.184ZM506.889 456.108C506.889 455.333 507.048 454.647 507.365 454.05C507.692 453.453 508.13 452.991 508.681 452.664C509.241 452.328 509.857 452.16 510.529 452.16C511.136 452.16 511.663 452.281 512.111 452.524C512.568 452.757 512.932 453.051 513.203 453.406V452.286H514.813V460H513.203V458.852C512.932 459.216 512.564 459.519 512.097 459.762C511.63 460.005 511.098 460.126 510.501 460.126C509.838 460.126 509.232 459.958 508.681 459.622C508.13 459.277 507.692 458.801 507.365 458.194C507.048 457.578 506.889 456.883 506.889 456.108ZM513.203 456.136C513.203 455.604 513.091 455.142 512.867 454.75C512.652 454.358 512.368 454.059 512.013 453.854C511.658 453.649 511.276 453.546 510.865 453.546C510.454 453.546 510.072 453.649 509.717 453.854C509.362 454.05 509.073 454.344 508.849 454.736C508.634 455.119 508.527 455.576 508.527 456.108C508.527 456.64 508.634 457.107 508.849 457.508C509.073 457.909 509.362 458.217 509.717 458.432C510.081 458.637 510.464 458.74 510.865 458.74C511.276 458.74 511.658 458.637 512.013 458.432C512.368 458.227 512.652 457.928 512.867 457.536C513.091 457.135 513.203 456.668 513.203 456.136ZM518.505 453.406C518.739 453.014 519.047 452.711 519.429 452.496C519.821 452.272 520.283 452.16 520.815 452.16V453.812H520.409C519.784 453.812 519.308 453.971 518.981 454.288C518.664 454.605 518.505 455.156 518.505 455.94V460H516.909V452.286H518.505V453.406ZM521.75 456.136C521.75 455.343 521.909 454.647 522.226 454.05C522.553 453.443 523.001 452.977 523.57 452.65C524.14 452.323 524.793 452.16 525.53 452.16C526.464 452.16 527.234 452.384 527.84 452.832C528.456 453.271 528.872 453.901 529.086 454.722H527.364C527.224 454.339 527 454.041 526.692 453.826C526.384 453.611 525.997 453.504 525.53 453.504C524.877 453.504 524.354 453.737 523.962 454.204C523.58 454.661 523.388 455.305 523.388 456.136C523.388 456.967 523.58 457.615 523.962 458.082C524.354 458.549 524.877 458.782 525.53 458.782C526.454 458.782 527.066 458.376 527.364 457.564H529.086C528.862 458.348 528.442 458.973 527.826 459.44C527.21 459.897 526.445 460.126 525.53 460.126C524.793 460.126 524.14 459.963 523.57 459.636C523.001 459.3 522.553 458.833 522.226 458.236C521.909 457.629 521.75 456.929 521.75 456.136ZM534.667 452.16C535.255 452.16 535.778 452.286 536.235 452.538C536.702 452.79 537.066 453.163 537.327 453.658C537.598 454.153 537.733 454.75 537.733 455.45V460H536.151V455.688C536.151 454.997 535.978 454.47 535.633 454.106C535.288 453.733 534.816 453.546 534.219 453.546C533.622 453.546 533.146 453.733 532.791 454.106C532.446 454.47 532.273 454.997 532.273 455.688V460H530.677V449.64H532.273V453.182C532.544 452.855 532.884 452.603 533.295 452.426C533.715 452.249 534.172 452.16 534.667 452.16Z" fill="white"/>
<rect x="605" y="415" width="100" height="80" rx="8" fill="#FC4600" fill-opacity="0.82"/>
<path d="M650.672 453.168C650.672 453.663 650.556 454.129 650.322 454.568C650.089 455.007 649.716 455.366 649.202 455.646C648.689 455.917 648.031 456.052 647.228 456.052H645.464V460H643.868V450.27H647.228C647.975 450.27 648.605 450.401 649.118 450.662C649.641 450.914 650.028 451.259 650.28 451.698C650.542 452.137 650.672 452.627 650.672 453.168ZM647.228 454.75C647.835 454.75 648.288 454.615 648.586 454.344C648.885 454.064 649.034 453.672 649.034 453.168C649.034 452.104 648.432 451.572 647.228 451.572H645.464V454.75H647.228ZM653.791 450.27V460H652.195V450.27H653.791ZM666.134 450.27V460H664.538V453.336L661.57 460H660.464L657.482 453.336V460H655.886V450.27H657.608L661.024 457.9L664.426 450.27H666.134Z" fill="white"/>
<path d="M238.657 414.707C239.048 415.098 239.681 415.098 240.071 414.707L246.435 408.343C246.826 407.953 246.826 407.319 246.435 406.929C246.045 406.538 245.412 406.538 245.021 406.929L239.364 412.586L233.707 406.929C233.317 406.538 232.684 406.538 232.293 406.929C231.903 407.319 231.903 407.953 232.293 408.343L238.657 414.707ZM239.364 318L238.364 318L238.364 414L239.364 414L240.364 414L240.364 318L239.364 318Z" fill="#5BA90A"/>
<path d="M379.657 414.707C380.048 415.098 380.681 415.098 381.071 414.707L387.435 408.343C387.826 407.953 387.826 407.319 387.435 406.929C387.045 406.538 386.412 406.538 386.021 406.929L380.364 412.586L374.707 406.929C374.317 406.538 373.684 406.538 373.293 406.929C372.903 407.319 372.903 407.953 373.293 408.343L379.657 414.707ZM380.364 318L379.364 318L379.364 414L380.364 414L381.364 414L381.364 318L380.364 318Z" fill="#5BA90A"/>
<path d="M520.657 414.707C521.048 415.098 521.681 415.098 522.071 414.707L528.435 408.343C528.826 407.953 528.826 407.319 528.435 406.929C528.045 406.538 527.412 406.538 527.021 406.929L521.364 412.586L515.707 406.929C515.317 406.538 514.684 406.538 514.293 406.929C513.903 407.319 513.903 407.953 514.293 408.343L520.657 414.707ZM521.364 318L520.364 318L520.364 414L521.364 414L522.364 414L522.364 318L521.364 318Z" fill="#5BA90A"/>
<path d="M661.657 414.707C662.048 415.098 662.681 415.098 663.071 414.707L669.435 408.343C669.826 407.953 669.826 407.319 669.435 406.929C669.045 406.538 668.412 406.538 668.021 406.929L662.364 412.586L656.707 406.929C656.317 406.538 655.684 406.538 655.293 406.929C654.903 407.319 654.903 407.953 655.293 408.343L661.657 414.707ZM662.364 318L661.364 318L661.364 414L662.364 414L663.364 414L663.364 318L662.364 318Z" fill="#5BA90A"/>
<path d="M443.293 148.707C443.683 149.098 444.317 149.098 444.707 148.707L451.071 142.343C451.462 141.953 451.462 141.319 451.071 140.929C450.681 140.538 450.047 140.538 449.657 140.929L444 146.586L438.343 140.929C437.953 140.538 437.319 140.538 436.929 140.929C436.538 141.319 436.538 141.953 436.929 142.343L443.293 148.707ZM444 123L443 123L443 148L444 148L445 148L445 123L444 123Z" fill="#067146"/>
<path d="M50.2391 79.848V81.032H45.3911V84.792H49.3271V85.976H45.3911V91H43.9351V79.848H50.2391ZM53.4536 83.656C53.7096 83.1547 54.0723 82.7653 54.5416 82.488C55.0216 82.2107 55.603 82.072 56.2856 82.072V83.576H55.9016C54.2696 83.576 53.4536 84.4613 53.4536 86.232V91H51.9976V82.232H53.4536V83.656ZM61.7904 91.144C60.969 91.144 60.2224 90.9573 59.5504 90.584C58.889 90.2107 58.3664 89.6827 57.9824 89C57.609 88.3067 57.4224 87.5067 57.4224 86.6C57.4224 85.704 57.6144 84.9147 57.9984 84.232C58.393 83.5387 58.9264 83.0107 59.5984 82.648C60.2704 82.2747 61.0224 82.088 61.8544 82.088C62.6864 82.088 63.4384 82.2747 64.1104 82.648C64.7824 83.0107 65.3104 83.5333 65.6944 84.216C66.089 84.8987 66.2864 85.6933 66.2864 86.6C66.2864 87.5067 66.0837 88.3067 65.6784 89C65.2837 89.6827 64.745 90.2107 64.0624 90.584C63.3797 90.9573 62.6224 91.144 61.7904 91.144ZM61.7904 89.864C62.313 89.864 62.8037 89.7413 63.2624 89.496C63.721 89.2507 64.089 88.8827 64.3664 88.392C64.6544 87.9013 64.7984 87.304 64.7984 86.6C64.7984 85.896 64.6597 85.2987 64.3824 84.808C64.105 84.3173 63.7424 83.9547 63.2944 83.72C62.8464 83.4747 62.361 83.352 61.8384 83.352C61.305 83.352 60.8144 83.4747 60.3664 83.72C59.929 83.9547 59.577 84.3173 59.3104 84.808C59.0437 85.2987 58.9104 85.896 58.9104 86.6C58.9104 87.3147 59.0384 87.9173 59.2944 88.408C59.561 88.8987 59.913 89.2667 60.3504 89.512C60.7877 89.7467 61.2677 89.864 61.7904 89.864ZM72.4728 82.072C73.5394 82.072 74.4034 82.3973 75.0648 83.048C75.7261 83.688 76.0568 84.616 76.0568 85.832V91H74.6168V86.04C74.6168 85.1653 74.3981 84.4987 73.9608 84.04C73.5234 83.5707 72.9261 83.336 72.1688 83.336C71.4008 83.336 70.7874 83.576 70.3288 84.056C69.8808 84.536 69.6568 85.2347 69.6568 86.152V91H68.2008V82.232H69.6568V83.48C69.9448 83.032 70.3341 82.6853 70.8248 82.44C71.3261 82.1947 71.8754 82.072 72.4728 82.072ZM80.2111 83.432V88.6C80.2111 89.0267 80.3018 89.3307 80.4831 89.512C80.6645 89.6827 80.9791 89.768 81.4271 89.768H82.4991V91H81.1871C80.3765 91 79.7685 90.8133 79.3631 90.44C78.9578 90.0667 78.7551 89.4533 78.7551 88.6V83.432H77.6191V82.232H78.7551V80.024H80.2111V82.232H82.4991V83.432H80.2111ZM92.2633 86.28C92.2633 86.5573 92.2473 86.8507 92.2153 87.16H85.2073C85.2606 88.024 85.5539 88.7013 86.0873 89.192C86.6313 89.672 87.2873 89.912 88.0553 89.912C88.6846 89.912 89.2073 89.768 89.6233 89.48C90.0499 89.1813 90.3486 88.7867 90.5193 88.296H92.0873C91.8526 89.1387 91.3833 89.8267 90.6793 90.36C89.9753 90.8827 89.1006 91.144 88.0553 91.144C87.2233 91.144 86.4766 90.9573 85.8153 90.584C85.1646 90.2107 84.6526 89.6827 84.2793 89C83.9059 88.3067 83.7193 87.5067 83.7193 86.6C83.7193 85.6933 83.9006 84.8987 84.2633 84.216C84.6259 83.5333 85.1326 83.0107 85.7833 82.648C86.4446 82.2747 87.2019 82.088 88.0553 82.088C88.8873 82.088 89.6233 82.2693 90.2633 82.632C90.9033 82.9947 91.3939 83.496 91.7353 84.136C92.0873 84.7653 92.2633 85.48 92.2633 86.28ZM90.7593 85.976C90.7593 85.4213 90.6366 84.9467 90.3913 84.552C90.1459 84.1467 89.8099 83.8427 89.3833 83.64C88.9673 83.4267 88.5033 83.32 87.9913 83.32C87.2553 83.32 86.6259 83.5547 86.1033 84.024C85.5913 84.4933 85.2979 85.144 85.2233 85.976H90.7593ZM98.4571 82.072C99.5238 82.072 100.388 82.3973 101.049 83.048C101.71 83.688 102.041 84.616 102.041 85.832V91H100.601V86.04C100.601 85.1653 100.382 84.4987 99.9451 84.04C99.5078 83.5707 98.9105 83.336 98.1531 83.336C97.3851 83.336 96.7718 83.576 96.3131 84.056C95.8651 84.536 95.6411 85.2347 95.6411 86.152V91H94.1851V82.232H95.6411V83.48C95.9291 83.032 96.3185 82.6853 96.8091 82.44C97.3105 82.1947 97.8598 82.072 98.4571 82.072ZM103.876 86.584C103.876 85.688 104.057 84.904 104.42 84.232C104.782 83.5493 105.278 83.0213 105.908 82.648C106.548 82.2747 107.262 82.088 108.052 82.088C108.734 82.088 109.369 82.248 109.956 82.568C110.542 82.8773 110.99 83.288 111.3 83.8V79.16H112.772V91H111.3V89.352C111.012 89.8747 110.585 90.3067 110.02 90.648C109.454 90.9787 108.793 91.144 108.036 91.144C107.257 91.144 106.548 90.952 105.908 90.568C105.278 90.184 104.782 89.6453 104.42 88.952C104.057 88.2587 103.876 87.4693 103.876 86.584ZM111.3 86.6C111.3 85.9387 111.166 85.3627 110.9 84.872C110.633 84.3813 110.27 84.008 109.812 83.752C109.364 83.4853 108.868 83.352 108.324 83.352C107.78 83.352 107.284 83.48 106.836 83.736C106.388 83.992 106.03 84.3653 105.764 84.856C105.497 85.3467 105.364 85.9227 105.364 86.584C105.364 87.256 105.497 87.8427 105.764 88.344C106.03 88.8347 106.388 89.2133 106.836 89.48C107.284 89.736 107.78 89.864 108.324 89.864C108.868 89.864 109.364 89.736 109.812 89.48C110.27 89.2133 110.633 88.8347 110.9 88.344C111.166 87.8427 111.3 87.2613 111.3 86.6Z" fill="#5BA90A"/>
<path d="M94.8785 234.256C95.2838 234.32 95.6518 234.485 95.9825 234.752C96.3238 235.019 96.5905 235.349 96.7825 235.744C96.9852 236.139 97.0865 236.56 97.0865 237.008C97.0865 237.573 96.9425 238.085 96.6545 238.544C96.3665 238.992 95.9452 239.349 95.3905 239.616C94.8465 239.872 94.2012 240 93.4545 240H89.2945V228.848H93.2945C94.0518 228.848 94.6972 228.976 95.2305 229.232C95.7638 229.477 96.1638 229.813 96.4305 230.24C96.6972 230.667 96.8305 231.147 96.8305 231.68C96.8305 232.341 96.6492 232.891 96.2865 233.328C95.9345 233.755 95.4652 234.064 94.8785 234.256ZM90.7505 233.664H93.1985C93.8812 233.664 94.4092 233.504 94.7825 233.184C95.1558 232.864 95.3425 232.421 95.3425 231.856C95.3425 231.291 95.1558 230.848 94.7825 230.528C94.4092 230.208 93.8705 230.048 93.1665 230.048H90.7505V233.664ZM93.3265 238.8C94.0518 238.8 94.6172 238.629 95.0225 238.288C95.4278 237.947 95.6305 237.472 95.6305 236.864C95.6305 236.245 95.4172 235.76 94.9905 235.408C94.5638 235.045 93.9932 234.864 93.2785 234.864H90.7505V238.8H93.3265ZM105.411 228.848V230.032H100.563V233.792H104.499V234.976H100.563V240H99.107V228.848H105.411ZM113.474 228.848V230.032H108.626V233.792H112.562V234.976H108.626V240H107.17V228.848H113.474Z" fill="#5BA90A"/>
</svg>
