<svg width="40" height="40" viewBox="0 0 40 40" fill="none" xmlns="http://www.w3.org/2000/svg">
<g id="Icon / Drill">
<path id="Vector" d="M30 10H36.6667M23.3334 6.66666H28.3334C28.7754 6.66666 29.1993 6.84226 29.5119 7.15482C29.8244 7.46738 30 7.8913 30 8.33333V11.6667C30 12.1087 29.8244 12.5326 29.5119 12.8452C29.1993 13.1577 28.7754 13.3333 28.3334 13.3333H23.3334M8.33337 16.6667L5.00004 30M5.00004 30C4.00004 30 3.33337 30.6667 3.33337 31.6667C3.33337 34.5 5.50004 36.6667 8.33337 36.6667H16.6667C17.6667 36.6667 18.3334 36 18.3334 35V31.6667C18.3334 30.6667 17.6667 30 16.6667 30H5.00004ZM20 16.6667V21.6667C20 22.6667 19.3334 23.3333 18.3334 23.3333H13.3334M11.6667 30L15 16.6667M23.3334 15C23.3334 16 22.6667 16.6667 21.6667 16.6667H6.66671C5.78265 16.6667 4.93481 16.3155 4.30968 15.6904C3.68456 15.0652 3.33337 14.2174 3.33337 13.3333V6.66666C3.33337 5.78261 3.68456 4.93476 4.30968 4.30964C4.93481 3.68452 5.78265 3.33333 6.66671 3.33333H21.6667C22.6667 3.33333 23.3334 3.99999 23.3334 4.99999V15Z" stroke="#18181B" stroke-width="2" stroke-linecap="round" stroke-linejoin="round"/>
</g>
</svg>
