<svg width="40" height="40" viewBox="0 0 40 40" fill="none" xmlns="http://www.w3.org/2000/svg">
<g id="Icon / MapPin">
<g id="Vector">
<path d="M33.3334 16.6667C33.3334 26.6667 20 36.6667 20 36.6667C20 36.6667 6.66669 26.6667 6.66669 16.6667C6.66669 13.1304 8.07145 9.73906 10.5719 7.23857C13.0724 4.73809 16.4638 3.33333 20 3.33333C23.5362 3.33333 26.9276 4.73809 29.4281 7.23857C31.9286 9.73906 33.3334 13.1304 33.3334 16.6667Z" stroke="#18181B" stroke-width="2" stroke-linecap="round" stroke-linejoin="round"/>
<path d="M20 21.6667C22.7614 21.6667 25 19.4281 25 16.6667C25 13.9052 22.7614 11.6667 20 11.6667C17.2386 11.6667 15 13.9052 15 16.6667C15 19.4281 17.2386 21.6667 20 21.6667Z" stroke="#18181B" stroke-width="2" stroke-linecap="round" stroke-linejoin="round"/>
</g>
</g>
</svg>
